<svg width="24" height="20" viewBox="0 0 24 20" fill="none" xmlns="http://www.w3.org/2000/svg">
<path fill-rule="evenodd" clip-rule="evenodd" d="M1.48999 18.5085V7.86731H22.3547V18.5085H1.48999ZM3.06312 2.47296V2.7082C3.06119 2.80736 3.07908 2.90591 3.11575 2.99806C3.15241 3.09021 3.20711 3.1741 3.27662 3.2448C3.3458 3.31585 3.42848 3.37235 3.51979 3.41097C3.6111 3.44959 3.70921 3.46956 3.80834 3.4697C3.90747 3.46956 4.00558 3.44959 4.09689 3.41097C4.1882 3.37235 4.27088 3.31585 4.34006 3.2448C4.40909 3.17386 4.46332 3.08987 4.49959 2.99775C4.53585 2.90562 4.55344 2.80719 4.55131 2.7082V2.47206H7.11912V2.7082C7.11912 2.9061 7.19768 3.0959 7.33752 3.23584C7.47736 3.37578 7.66703 3.4544 7.86479 3.4544C8.06255 3.4544 8.25222 3.37578 8.39206 3.23584C8.53189 3.0959 8.61046 2.9061 8.61046 2.7082V2.47206H11.1787V2.7082C11.1787 2.90586 11.2572 3.09544 11.3969 3.23521C11.5365 3.37498 11.726 3.4535 11.9235 3.4535C12.121 3.4535 12.3104 3.37498 12.4501 3.23521C12.5898 3.09544 12.6683 2.90586 12.6683 2.7082V2.47206H15.2343V2.7082C15.2343 2.90598 15.3128 3.09567 15.4525 3.23553C15.5923 3.37538 15.7818 3.45395 15.9795 3.45395C16.1771 3.45395 16.3667 3.37538 16.5064 3.23553C16.6462 3.09567 16.7247 2.90598 16.7247 2.7082V2.47206H19.2939V2.7082C19.2914 2.80764 19.3089 2.90657 19.3452 2.99916C19.3816 3.09175 19.4361 3.17613 19.5055 3.24732C19.5749 3.31852 19.6578 3.3751 19.7494 3.41373C19.841 3.45236 19.9394 3.47227 20.0389 3.47227C20.1383 3.47227 20.2367 3.45236 20.3283 3.41373C20.4199 3.3751 20.5028 3.31852 20.5722 3.24732C20.6417 3.17613 20.6961 3.09175 20.7325 2.99916C20.7688 2.90657 20.7863 2.80764 20.7838 2.7082V2.47206H22.3547V6.37625H1.48999V2.47296H3.06312ZM22.4024 0.981446H20.7843V0.746205C20.7795 0.551648 20.6989 0.366668 20.5597 0.230754C20.4205 0.094841 20.2338 0.0187634 20.0393 0.0187634C19.8448 0.0187634 19.6581 0.094841 19.5189 0.230754C19.3797 0.366668 19.2991 0.551648 19.2943 0.746205V0.982795H16.7256V0.746205C16.7256 0.548299 16.647 0.358499 16.5072 0.218558C16.3674 0.0786179 16.1777 0 15.9799 0C15.7822 0 15.5925 0.0786179 15.4527 0.218558C15.3128 0.358499 15.2343 0.548299 15.2343 0.746205V0.982795H12.6674V0.746205C12.6626 0.551648 12.582 0.366668 12.4428 0.230754C12.3036 0.094841 12.1168 0.0187634 11.9224 0.0187634C11.7279 0.0187634 11.5411 0.094841 11.4019 0.230754C11.2627 0.366668 11.1821 0.551648 11.1774 0.746205V0.982795H8.61091V0.746205C8.61091 0.548418 8.53239 0.358733 8.39264 0.218877C8.25288 0.0790203 8.06333 0.000449716 7.86569 0.000449716C7.66804 0.000449716 7.47849 0.0790203 7.33874 0.218877C7.19898 0.358733 7.12047 0.548418 7.12047 0.746205V0.982795H4.55131V0.746205C4.54889 0.616994 4.51294 0.490633 4.44699 0.379524C4.38103 0.268416 4.28734 0.176379 4.17511 0.112448C4.06276 0.0483188 3.93566 0.0145922 3.80632 0.0145922C3.67698 0.0145922 3.54988 0.0483188 3.43753 0.112448C3.32524 0.176357 3.23149 0.268377 3.16546 0.379481C3.09942 0.490586 3.06339 0.616959 3.06088 0.746205V0.982795H1.44504C1.06211 0.982759 0.694819 1.13483 0.423848 1.4056C0.289688 1.53952 0.183204 1.69859 0.11048 1.8737C0.0377553 2.04881 0.000213942 2.23654 0 2.42618V18.5553C0.00012038 18.7449 0.0375736 18.9327 0.110221 19.1079C0.182868 19.2831 0.289286 19.4423 0.423399 19.5763C0.694002 19.8472 1.06094 19.9996 1.44369 20H22.4015C22.7842 19.9995 23.1512 19.8472 23.4218 19.5763C23.6924 19.3055 23.8447 18.9383 23.8452 18.5553V2.42618C23.8449 2.04316 23.6928 1.6759 23.4222 1.40502C23.1516 1.13415 22.7847 0.981803 22.4019 0.981446H22.4024Z" fill="url(#paint0_linear_456_1951)"/>
<defs>
<linearGradient id="paint0_linear_456_1951" x1="-1.40568e-08" y1="10.4003" x2="23.9995" y2="10.4003" gradientUnits="userSpaceOnUse">
<stop stop-color="#C800FF"/>
<stop offset="1" stop-color="#6400FF"/>
</linearGradient>
</defs>
</svg>

