<svg width="22" height="22" viewBox="0 0 22 22" fill="none" xmlns="http://www.w3.org/2000/svg">
<path d="M11 0C4.93335 0 0 4.93335 0 11C0 17.0667 4.93335 22 11 22C17.0667 22 22 17.0667 22 11C22 4.93335 17.0667 0 11 0ZM11 1.43478C12.8918 1.43478 14.7412 1.99577 16.3142 3.04681C17.8871 4.09785 19.1131 5.59173 19.8371 7.33955C20.5611 9.08737 20.7505 11.0106 20.3814 12.8661C20.0124 14.7216 19.1014 16.4259 17.7636 17.7636C16.4259 19.1014 14.7216 20.0124 12.8661 20.3814C11.0106 20.7505 9.08737 20.5611 7.33955 19.8371C5.59173 19.1131 4.09785 17.8871 3.04681 16.3142C1.99577 14.7412 1.43478 12.8918 1.43478 11C1.43338 9.74348 1.67983 8.49903 2.16003 7.33789C2.64023 6.17675 3.34475 5.12173 4.23324 4.23324C5.12173 3.34474 6.17675 2.64023 7.33789 2.16003C8.49903 1.67983 9.74348 1.43338 11 1.43478ZM11 3.1087C10.8097 3.1087 10.6273 3.18428 10.4927 3.31881C10.3582 3.45335 10.2826 3.63582 10.2826 3.82609V11C10.2826 11.1903 10.3582 11.3727 10.4927 11.5073C10.6273 11.6418 10.8097 11.7174 11 11.7174H17.6957C17.8859 11.7174 18.0684 11.6418 18.2029 11.5073C18.3375 11.3727 18.413 11.1903 18.413 11C18.413 10.8097 18.3375 10.6273 18.2029 10.4927C18.0684 10.3582 17.8859 10.2826 17.6957 10.2826H11.7174V3.82609C11.7174 3.63582 11.6418 3.45335 11.5073 3.31881C11.3727 3.18428 11.1903 3.1087 11 3.1087Z" fill="url(#paint0_linear_456_1948)"/>
<defs>
<linearGradient id="paint0_linear_456_1948" x1="-4.77314e-08" y1="11.44" x2="22" y2="11.44" gradientUnits="userSpaceOnUse">
<stop stop-color="#C800FF"/>
<stop offset="1" stop-color="#6400FF"/>
</linearGradient>
</defs>
</svg>
