<?xml version="1.0" encoding="utf-8"?>
<!-- Generator: Adobe Illustrator 25.0.0, SVG Export Plug-In . SVG Version: 6.00 Build 0)  -->
<svg version="1.1" id="Capa_1" xmlns="http://www.w3.org/2000/svg" xmlns:xlink="http://www.w3.org/1999/xlink" x="0px" y="0px"
	 viewBox="0 0 100 100" style="enable-background:new 0 0 100 100;" xml:space="preserve">
<style type="text/css">
	.st0{fill:#C800FF;}
</style>
<g>
	<path class="st0" d="M19.37,14.66l65.97,65.97c1.3,1.3,1.3,3.41,0,4.71l0,0c-1.3,1.3-3.41,1.3-4.71,0L14.66,19.37
		c-1.3-1.3-1.3-3.41,0-4.71l0,0C15.96,13.36,18.07,13.36,19.37,14.66z"/>
	<path class="st0" d="M14.66,80.63l65.97-65.97c1.3-1.3,3.41-1.3,4.71,0l0,0c1.3,1.3,1.3,3.41,0,4.71L19.37,85.34
		c-1.3,1.3-3.41,1.3-4.71,0l0,0C13.36,84.04,13.36,81.93,14.66,80.63z"/>
</g>
</svg>
