<svg xmlns="http://www.w3.org/2000/svg" xmlns:xlink="http://www.w3.org/1999/xlink" viewBox="0 0 961.16 423.05"><defs><style>.cls-1{isolation:isolate;}.cls-2{clip-path:url(#clip-path);}.cls-3{fill:none;}.cls-4{clip-path:url(#clip-path-2);}.cls-5{fill:url(#Degradado_sin_nombre_20);}.cls-6{clip-path:url(#clip-path-3);}.cls-7{fill:url(#Degradado_sin_nombre_34);}.cls-8{clip-path:url(#clip-path-4);}.cls-9{clip-path:url(#clip-path-5);}.cls-10{fill:url(#Degradado_sin_nombre_34-2);}.cls-11{clip-path:url(#clip-path-6);}.cls-12{clip-path:url(#clip-path-7);}.cls-13{fill:url(#Degradado_sin_nombre_34-3);}.cls-14{clip-path:url(#clip-path-8);}.cls-15{clip-path:url(#clip-path-9);}.cls-16{fill:url(#Degradado_sin_nombre_28);}.cls-17{clip-path:url(#clip-path-10);}.cls-18{fill:url(#Degradado_sin_nombre_34-4);}.cls-19{clip-path:url(#clip-path-11);}.cls-20{clip-path:url(#clip-path-12);}.cls-21{fill:url(#Degradado_sin_nombre_34-5);}.cls-22{clip-path:url(#clip-path-13);}.cls-23{clip-path:url(#clip-path-14);}.cls-24{fill:url(#Degradado_sin_nombre_34-6);}.cls-25{clip-path:url(#clip-path-15);}.cls-26{fill:url(#Degradado_sin_nombre_18);}.cls-27{opacity:0.27;}.cls-28{clip-path:url(#clip-path-16);}.cls-29{clip-path:url(#clip-path-17);}.cls-30{opacity:0.49;}.cls-31{clip-path:url(#clip-path-19);}.cls-32{mask:url(#mask);}.cls-33{clip-path:url(#clip-path-21);}.cls-34{fill:url(#Degradado_sin_nombre_33);}.cls-35{opacity:0.28;}.cls-36{clip-path:url(#clip-path-22);}.cls-37{clip-path:url(#clip-path-23);}.cls-38{clip-path:url(#clip-path-25);}.cls-39{mask:url(#mask-2);}.cls-40{clip-path:url(#clip-path-27);}.cls-41{fill:url(#Degradado_sin_nombre_33-2);}.cls-42{opacity:0.23;}.cls-43{clip-path:url(#clip-path-28);}.cls-44{clip-path:url(#clip-path-29);}.cls-45{mask:url(#mask-3);}.cls-46{clip-path:url(#clip-path-31);}.cls-47{fill:url(#Degradado_sin_nombre_33-3);}.cls-48{clip-path:url(#clip-path-32);}.cls-49{clip-path:url(#clip-path-33);}.cls-50{mask:url(#mask-4);}.cls-51{clip-path:url(#clip-path-35);}.cls-52{fill:url(#Degradado_sin_nombre_33-4);}.cls-53{clip-path:url(#clip-path-36);}.cls-54{clip-path:url(#clip-path-37);}.cls-55{mask:url(#mask-5);}.cls-56{clip-path:url(#clip-path-39);}.cls-57{fill:url(#Degradado_sin_nombre_33-5);}.cls-58{opacity:0.12;}.cls-59{clip-path:url(#clip-path-40);}.cls-60{clip-path:url(#clip-path-41);}.cls-61{mask:url(#mask-6);}.cls-62{clip-path:url(#clip-path-43);}.cls-63{fill:url(#Degradado_sin_nombre_33-6);}.cls-64{clip-path:url(#clip-path-44);}.cls-65{clip-path:url(#clip-path-45);}.cls-66{mask:url(#mask-7);}.cls-67{clip-path:url(#clip-path-47);}.cls-68{fill:url(#Degradado_sin_nombre_33-7);}.cls-69{clip-path:url(#clip-path-48);}.cls-70{clip-path:url(#clip-path-49);}.cls-71{mask:url(#mask-8);}.cls-72{clip-path:url(#clip-path-51);}.cls-73{fill:url(#Degradado_sin_nombre_33-8);}.cls-74{fill:#fff;}</style><clipPath id="clip-path"><rect class="cls-3" x="118.4" y="89.06" width="77.29" height="81.51"/></clipPath><clipPath id="clip-path-2"><rect class="cls-3" x="124.8" y="101.73" width="64.48" height="55.91" transform="translate(-25.76 219.49) rotate(-65.71)"/></clipPath><linearGradient id="Degradado_sin_nombre_20" x1="-547.15" y1="1849.25" x2="-545.58" y2="1849.25" gradientTransform="translate(-9510.79 32875.04) rotate(-180) scale(17.71)" gradientUnits="userSpaceOnUse"><stop offset="0" stop-color="#1d1d1b"/><stop offset="0.15" stop-color="#535352"/><stop offset="0.31" stop-color="#878786"/><stop offset="0.46" stop-color="#b2b2b1"/><stop offset="0.61" stop-color="#d4d4d3"/><stop offset="0.76" stop-color="#ececeb"/><stop offset="0.89" stop-color="#fafafa"/><stop offset="1" stop-color="#fff"/></linearGradient><clipPath id="clip-path-3"><rect class="cls-3" x="148.38" y="117.41" width="32.32" height="55.29" transform="translate(-7.78 280.77) rotate(-79.62)"/></clipPath><linearGradient id="Degradado_sin_nombre_34" x1="-483.95" y1="1779.64" x2="-482.38" y2="1779.64" gradientTransform="translate(50943.18 13936.31) rotate(90) scale(28.53)" gradientUnits="userSpaceOnUse"><stop offset="0" stop-color="#1d1d1b"/><stop offset="1" stop-color="#fff"/></linearGradient><clipPath id="clip-path-4"><rect class="cls-3" y="40.12" width="173.66" height="173.28"/></clipPath><clipPath id="clip-path-5"><rect class="cls-3" x="24.03" y="63.84" width="126.49" height="124.9" transform="translate(-56.96 73.74) rotate(-35.33)"/></clipPath><linearGradient id="Degradado_sin_nombre_34-2" x1="-489.59" y1="1837.47" x2="-488.02" y2="1837.47" gradientTransform="matrix(-75.42, 0, 0, -75.42, -36784.98, 138705.78)" xlink:href="#Degradado_sin_nombre_34"/><clipPath id="clip-path-6"><rect class="cls-3" x="25.46" y="126.84" width="87.77" height="87.77"/></clipPath><clipPath id="clip-path-7"><rect class="cls-3" x="37.53" y="138.16" width="63.63" height="63.58" transform="translate(-99.76 98.57) rotate(-44.92)"/></clipPath><linearGradient id="Degradado_sin_nombre_34-3" x1="-502.99" y1="1797.89" x2="-501.42" y2="1797.89" gradientTransform="matrix(0, 35.59, -35.59, 0, 64053.9, 18058.44)" xlink:href="#Degradado_sin_nombre_34"/><clipPath id="clip-path-8"><rect class="cls-3" x="134.07" y="188.06" width="116.04" height="29.51"/></clipPath><clipPath id="clip-path-9"><rect class="cls-3" x="178.51" y="144.59" width="26" height="116.45" transform="translate(-17.12 387.97) rotate(-88.23)"/></clipPath><linearGradient id="Degradado_sin_nombre_28" x1="-478.08" y1="1802.49" x2="-476.51" y2="1802.49" gradientTransform="translate(104836.16 27907.63) rotate(90) scale(58.06)" gradientUnits="userSpaceOnUse"><stop offset="0" stop-color="#fff"/><stop offset="1" stop-color="#1d1d1b"/></linearGradient><clipPath id="clip-path-10"><rect class="cls-3" x="175.32" y="175.88" width="81.6" height="79.27" transform="translate(-87.97 189.38) rotate(-40.01)"/></clipPath><linearGradient id="Degradado_sin_nombre_34-4" x1="-430.62" y1="1872.85" x2="-429.05" y2="1872.85" gradientTransform="translate(-33841 -7593.17) rotate(-90) scale(18.18)" xlink:href="#Degradado_sin_nombre_34"/><clipPath id="clip-path-11"><rect class="cls-3" x="171.72" y="18.09" width="55.52" height="123.06"/></clipPath><clipPath id="clip-path-12"><rect class="cls-3" x="137.75" y="51.94" width="123.14" height="54.83" transform="translate(118.3 278) rotate(-89.52)"/></clipPath><linearGradient id="Degradado_sin_nombre_34-5" x1="-447.39" y1="1826.38" x2="-445.82" y2="1826.38" gradientTransform="translate(18468.09 -74628.82) scale(40.9)" xlink:href="#Degradado_sin_nombre_34"/><clipPath id="clip-path-13"><rect class="cls-3" x="153.3" width="82.08" height="82.4"/></clipPath><clipPath id="clip-path-14"><rect class="cls-3" x="163.76" y="10.88" width="61.16" height="60.11" transform="translate(62.38 189.36) rotate(-60.25)"/></clipPath><linearGradient id="Degradado_sin_nombre_34-6" x1="-524.57" y1="1845.53" x2="-523" y2="1845.53" gradientTransform="translate(-13529.83 48419.72) rotate(180) scale(26.21)" xlink:href="#Degradado_sin_nombre_34"/><clipPath id="clip-path-15" transform="translate(81.75 82.62)"><path class="cls-3" d="M137.13,191.6a2.37,2.37,0,0,0-1,4.5L246,238.56a2.38,2.38,0,0,0,3.41-2.14V194A2.37,2.37,0,0,0,247,191.6Zm26.16-87.9-12,25.2L139,154.74a1.39,1.39,0,0,0,1.25,2h48.54a1.4,1.4,0,0,0,1.26-2L177.78,128.9l-12-25.2a1.39,1.39,0,0,0-2.51,0m-34-19.57L41.94,163.21a2.38,2.38,0,0,0,.38,4L80.24,186.3a2.36,2.36,0,0,0,3.18-1.05l49.42-98.17a2.39,2.39,0,0,0-2.13-3.46,2.34,2.34,0,0,0-1.43.51m82.63-65.39L174,37.86A2.37,2.37,0,0,0,173,41l49.67,98a2.37,2.37,0,0,0,4.49-1.1L215.36,20.82A2.38,2.38,0,0,0,213,18.48a2.48,2.48,0,0,0-1.07.26"/></clipPath><linearGradient id="Degradado_sin_nombre_18" x1="-486.33" y1="1832.25" x2="-484.76" y2="1832.25" gradientTransform="translate(-57087.43 216093.37) rotate(180) scale(117.87)" gradientUnits="userSpaceOnUse"><stop offset="0" stop-color="#00e1fb"/><stop offset="0.07" stop-color="#04d7fb"/><stop offset="0.19" stop-color="#10bdfb"/><stop offset="0.34" stop-color="#2392fc"/><stop offset="0.51" stop-color="#3d57fc"/><stop offset="0.53" stop-color="#4051fc"/><stop offset="0.61" stop-color="#514bfc"/><stop offset="0.87" stop-color="#8239fc"/><stop offset="1" stop-color="#9532fc"/></linearGradient><clipPath id="clip-path-16" transform="translate(81.75 82.62)"><rect class="cls-3" x="118.4" y="89.06" width="77.29" height="81.51"/></clipPath><clipPath id="clip-path-17" transform="translate(81.75 82.62)"><rect class="cls-3" x="138.88" y="102.91" width="36.63" height="53.82"/></clipPath><clipPath id="clip-path-19" transform="translate(81.75 82.62)"><path class="cls-3" d="M164.51,102.91a1.37,1.37,0,0,0-1.22.79l-12,25.2L139,154.74a1.39,1.39,0,0,0,1.25,2h5.93l29.31-32.6L165.8,103.7a1.4,1.4,0,0,0-1.23-.79Z"/></clipPath><mask id="mask" x="169.39" y="142.37" width="138.81" height="139.88" maskUnits="userSpaceOnUse"><g transform="translate(81.75 82.62)"><rect x="118.4" y="89.06" width="77.29" height="81.51"/><g class="cls-1"><g class="cls-2"><g class="cls-4"><rect class="cls-5" x="103.84" y="77.56" width="106.41" height="104.26" transform="translate(-25.76 219.48) rotate(-65.71)"/></g></g></g></g></mask><clipPath id="clip-path-21" transform="translate(81.75 82.62)"><rect class="cls-3" x="124.92" y="101.92" width="64.25" height="55.8" transform="translate(-25.89 219.56) rotate(-65.71)"/></clipPath><linearGradient id="Degradado_sin_nombre_33" x1="-547.15" y1="1849.25" x2="-545.58" y2="1849.25" gradientTransform="translate(-9510.66 32875.17) rotate(180) scale(17.71)" gradientUnits="userSpaceOnUse"><stop offset="0" stop-color="#fff"/><stop offset="1" stop-color="#fff"/></linearGradient><clipPath id="clip-path-22" transform="translate(81.75 82.62)"><rect class="cls-3" x="134.44" y="124.18" width="60.2" height="41.76"/></clipPath><clipPath id="clip-path-23" transform="translate(81.75 82.62)"><rect class="cls-3" x="138.88" y="133.38" width="51.32" height="23.35"/></clipPath><clipPath id="clip-path-25" transform="translate(81.75 82.62)"><path class="cls-3" d="M179.91,133.38c-2.23.36-4.47.77-6.7,1.24a138.63,138.63,0,0,0-29.24,9.7L139,154.74a1.39,1.39,0,0,0,1.25,2h48.55a1.39,1.39,0,0,0,1.25-2Z"/></clipPath><mask id="mask-2" x="208.79" y="196.13" width="75.01" height="63.1" maskUnits="userSpaceOnUse"><g transform="translate(81.75 82.62)"><rect x="134.44" y="124.18" width="60.2" height="41.76"/><g class="cls-1"><g class="cls-6"><rect class="cls-7" x="138.58" y="111.68" width="51.92" height="66.74" transform="translate(-7.79 280.77) rotate(-79.62)"/></g></g></g></mask><clipPath id="clip-path-27" transform="translate(81.75 82.62)"><rect class="cls-3" x="148.38" y="117.41" width="32.32" height="55.28" transform="translate(-7.79 280.77) rotate(-79.62)"/></clipPath><linearGradient id="Degradado_sin_nombre_33-2" x1="-483.95" y1="1779.64" x2="-482.38" y2="1779.64" gradientTransform="matrix(0, 28.53, -28.53, 0, 50943.19, 13936.28)" xlink:href="#Degradado_sin_nombre_33"/><clipPath id="clip-path-28" transform="translate(81.75 82.62)"><rect class="cls-3" y="40.12" width="173.66" height="173.28"/></clipPath><clipPath id="clip-path-29" transform="translate(81.75 82.62)"><path class="cls-3" d="M130.7,83.81a2.42,2.42,0,0,0-1.33.42l-87.43,79a2.39,2.39,0,0,0,.38,4l5,2.48h0a2.14,2.14,0,0,1,.93-1.35l71.37-58.63,13.17-22.64a2,2,0,0,0,.29-1V86a2.35,2.35,0,0,0-2.35-2.17Z"/></clipPath><mask id="mask-3" x="-1.28" y="38.62" width="340.61" height="340.59" maskUnits="userSpaceOnUse"><g transform="translate(81.75 82.62)"><rect y="40.12" width="173.66" height="173.28"/><g class="cls-1"><g class="cls-8"><g class="cls-9"><rect class="cls-10" x="-34.9" y="4.16" width="244.36" height="244.27" transform="translate(-56.96 73.74) rotate(-35.33)"/></g></g></g></g></mask><clipPath id="clip-path-31" transform="translate(81.75 82.62)"><rect class="cls-3" x="24.22" y="64.94" width="125.22" height="123.63" transform="translate(-57.31 73.56) rotate(-35.33)"/></clipPath><linearGradient id="Degradado_sin_nombre_33-3" x1="-489.59" y1="1837.46" x2="-488.02" y2="1837.46" gradientTransform="matrix(-75.42, 0, 0, -75.42, -36784.84, 138706.19)" xlink:href="#Degradado_sin_nombre_33"/><clipPath id="clip-path-32" transform="translate(81.75 82.62)"><rect class="cls-3" x="25.46" y="126.84" width="87.77" height="87.77"/></clipPath><clipPath id="clip-path-33" transform="translate(81.75 82.62)"><path class="cls-3" d="M78.56,154.91c-11.32,0-23.55,2.71-36.43,9.24a2.12,2.12,0,0,0-.49,1.27v.14a2.19,2.19,0,0,0,1.24,1.87l37.28,18.84a2.52,2.52,0,0,0,1.06.27h.15a2.37,2.37,0,0,0,2-1.15l14-27.93h0A71,71,0,0,0,78.56,154.91Z"/></clipPath><mask id="mask-4" x="61.14" y="162.62" width="179.91" height="179.91" maskUnits="userSpaceOnUse"><g transform="translate(81.75 82.62)"><rect x="25.46" y="126.84" width="87.77" height="87.77"/><g class="cls-1"><g class="cls-11"><g class="cls-12"><rect class="cls-13" x="5.74" y="106.34" width="127.21" height="127.21" transform="translate(-99.76 98.57) rotate(-44.92)"/></g></g></g></g></mask><clipPath id="clip-path-35" transform="translate(81.75 82.62)"><rect class="cls-3" x="38.3" y="139.71" width="62.09" height="62.04" transform="translate(-100.31 98.79) rotate(-44.92)"/></clipPath><linearGradient id="Degradado_sin_nombre_33-4" x1="-502.99" y1="1797.9" x2="-501.42" y2="1797.9" gradientTransform="matrix(0, 35.59, -35.59, 0, 64054.11, 18058.67)" xlink:href="#Degradado_sin_nombre_33"/><clipPath id="clip-path-36" transform="translate(81.75 82.62)"><rect class="cls-3" x="134.07" y="188.06" width="116.04" height="29.51"/></clipPath><clipPath id="clip-path-37" transform="translate(81.75 82.62)"><path class="cls-3" d="M137.62,191.6a2.65,2.65,0,0,0-2.86,2.33v.13a2.33,2.33,0,0,0,1.67,2l5.68,2.22a2.77,2.77,0,0,1,2.89-1.9L249.4,214h0V193.9a2.72,2.72,0,0,0-2.86-2.3Z"/></clipPath><mask id="mask-5" x="213.75" y="267.03" width="119.02" height="36.81" maskUnits="userSpaceOnUse"><g transform="translate(81.75 82.62)"><rect x="134.07" y="188.06" width="116.03" height="29.51"/><g class="cls-1"><g class="cls-14"><g class="cls-15"><rect class="cls-16" x="174.91" y="143.79" width="33.18" height="118.05" transform="translate(-17.12 387.97) rotate(-88.23)"/></g></g></g></g></mask><clipPath id="clip-path-39" transform="translate(81.75 82.62)"><rect class="cls-3" x="179.1" y="145.17" width="25.96" height="115.29" transform="translate(-16.56 388.55) rotate(-88.23)"/></clipPath><linearGradient id="Degradado_sin_nombre_33-5" x1="-478.08" y1="1802.49" x2="-476.51" y2="1802.49" gradientTransform="matrix(0, 58.06, -58.06, 0, 104836.73, 27907.05)" xlink:href="#Degradado_sin_nombre_33"/><clipPath id="clip-path-40" transform="translate(81.75 82.62)"><rect class="cls-3" x="159.39" y="158.93" width="113.47" height="113.18"/></clipPath><clipPath id="clip-path-41" transform="translate(81.75 82.62)"><path class="cls-3" d="M247.16,191.71l-.22,0a195.28,195.28,0,0,0-64.1,22.48l62.31,24.33c2,.77,4.26-.37,4.26-2.13V194A2.52,2.52,0,0,0,247.16,191.71Z"/></clipPath><mask id="mask-6" x="185.41" y="185.67" width="224.93" height="224.93" maskUnits="userSpaceOnUse"><g transform="translate(81.75 82.62)"><rect x="159.39" y="158.93" width="113.47" height="113.18"/><g class="cls-1"><g class="cls-17"><rect class="cls-18" x="136.29" y="135.7" width="159.67" height="159.64" transform="translate(-87.97 189.38) rotate(-40.01)"/></g></g></g></mask><clipPath id="clip-path-43" transform="translate(81.75 82.62)"><rect class="cls-3" x="175.32" y="175.88" width="81.61" height="79.27" transform="translate(-87.97 189.38) rotate(-40.01)"/></clipPath><linearGradient id="Degradado_sin_nombre_33-6" x1="-430.62" y1="1872.85" x2="-429.05" y2="1872.85" gradientTransform="translate(-33841 -7593.17) rotate(-90) scale(18.18)" xlink:href="#Degradado_sin_nombre_33"/><clipPath id="clip-path-44" transform="translate(81.75 82.62)"><rect class="cls-3" x="171.72" y="18.09" width="55.52" height="123.06"/></clipPath><clipPath id="clip-path-45" transform="translate(81.75 82.62)"><path class="cls-3" d="M212.8,18.54a2.18,2.18,0,0,0-1,.25L174,37.84a2.34,2.34,0,0,0-1.29,2V40a2.35,2.35,0,0,0,.26,1l49.55,98.14a2.32,2.32,0,0,0,3.67.64l-47.48-94a2.35,2.35,0,0,1,1-3.15L215.26,24.7l-.07-3.86a2.33,2.33,0,0,0-2.29-2.3Z"/></clipPath><mask id="mask-7" x="252.1" y="99.71" width="57.93" height="124.53" maskUnits="userSpaceOnUse"><g transform="translate(81.75 82.62)"><rect x="171.72" y="18.09" width="55.52" height="123.06"/><g class="cls-1"><g class="cls-19"><g class="cls-20"><rect class="cls-21" x="137.29" y="50.91" width="124.06" height="56.89" transform="translate(118.29 278) rotate(-89.52)"/></g></g></g></g></mask><clipPath id="clip-path-47" transform="translate(81.75 82.62)"><rect class="cls-3" x="138.18" y="52.37" width="122.61" height="54.5" transform="translate(118.2 278.43) rotate(-89.52)"/></clipPath><linearGradient id="Degradado_sin_nombre_33-7" x1="-447.39" y1="1826.39" x2="-445.82" y2="1826.39" gradientTransform="translate(18468.49 -74628.62) scale(40.9)" xlink:href="#Degradado_sin_nombre_33"/><clipPath id="clip-path-48" transform="translate(81.75 82.62)"><rect class="cls-3" x="153.3" width="82.08" height="82.4"/></clipPath><clipPath id="clip-path-49" transform="translate(81.75 82.62)"><path class="cls-3" d="M212.8,18.54a2.18,2.18,0,0,0-1,.25L174,37.84a2.27,2.27,0,0,0-1.2,1.6,138.29,138.29,0,0,0,43,24.42l-.67-43a2.33,2.33,0,0,0-2.29-2.3Z"/></clipPath><mask id="mask-8" x="199.11" y="46.54" width="153.97" height="154.03" maskUnits="userSpaceOnUse"><g transform="translate(81.75 82.62)"><rect x="153.3" width="82.08" height="82.4"/><g class="cls-1"><g class="cls-22"><g class="cls-23"><rect class="cls-24" x="137.87" y="-15.46" width="112.94" height="112.8" transform="translate(62.38 189.36) rotate(-60.26)"/></g></g></g></g></mask><clipPath id="clip-path-51" transform="translate(81.75 82.62)"><rect class="cls-3" x="163.99" y="11.27" width="60.7" height="59.85" transform="translate(62.15 189.5) rotate(-60.26)"/></clipPath><linearGradient id="Degradado_sin_nombre_33-8" x1="-524.57" y1="1845.53" x2="-523" y2="1845.53" gradientTransform="translate(-13529.59 48419.94) rotate(180) scale(26.21)" xlink:href="#Degradado_sin_nombre_33"/></defs><title>logo-annar</title><g id="Layer_2" data-name="Layer 2"><g id="Capa_1" data-name="Capa 1"><g class="cls-25"><rect class="cls-26" x="-5.19" y="-22.34" width="300.35" height="302.48" transform="translate(33.18 198.37) rotate(-37.75)"/></g><g class="cls-27"><g class="cls-28"><g class="cls-29"><g class="cls-30"><g class="cls-28"><g class="cls-31"><g class="cls-32"><g class="cls-28"><g class="cls-33"><rect class="cls-34" x="104" y="77.83" width="106.09" height="103.98" transform="translate(55.87 302.18) rotate(-65.71)"/></g></g></g></g></g></g></g></g></g><g class="cls-35"><g class="cls-36"><g class="cls-37"><g class="cls-35"><g class="cls-36"><g class="cls-38"><g class="cls-39"><g class="cls-36"><g class="cls-40"><rect class="cls-41" x="138.58" y="111.68" width="51.92" height="66.74" transform="translate(73.96 363.39) rotate(-79.62)"/></g></g></g></g></g></g></g></g></g><g class="cls-42"><g class="cls-43"><g class="cls-44"><g class="cls-45"><g class="cls-43"><g class="cls-46"><rect class="cls-47" x="-34.11" y="5.86" width="241.88" height="241.79" transform="translate(24.44 156.19) rotate(-35.33)"/></g></g></g></g></g></g><g class="cls-35"><g class="cls-48"><g class="cls-49"><g class="cls-50"><g class="cls-48"><g class="cls-51"><rect class="cls-52" x="7.28" y="108.66" width="124.13" height="124.13" transform="translate(-18.56 181.42) rotate(-44.92)"/></g></g></g></g></g></g><g class="cls-42"><g class="cls-53"><g class="cls-54"><g class="cls-55"><g class="cls-53"><g class="cls-56"><rect class="cls-57" x="175.55" y="144.37" width="33.07" height="116.89" transform="translate(65.19 471.17) rotate(-88.23)"/></g></g></g></g></g></g><g class="cls-58"><g class="cls-59"><g class="cls-60"><g class="cls-61"><g class="cls-59"><g class="cls-62"><rect class="cls-63" x="136.29" y="135.7" width="159.67" height="159.64" transform="translate(-6.22 272) rotate(-40.01)"/></g></g></g></g></g></g><g class="cls-42"><g class="cls-64"><g class="cls-65"><g class="cls-66"><g class="cls-64"><g class="cls-67"><rect class="cls-68" x="137.72" y="51.34" width="123.52" height="56.55" transform="translate(199.95 361.05) rotate(-89.52)"/></g></g></g></g></g></g><g class="cls-35"><g class="cls-69"><g class="cls-70"><g class="cls-71"><g class="cls-69"><g class="cls-72"><rect class="cls-73" x="138.21" y="-14.87" width="112.26" height="112.14" transform="translate(143.9 272.12) rotate(-60.26)"/></g></g></g></g></g></g><path class="cls-74" d="M522.61,56.59h-12a2.41,2.41,0,0,0-2.67,2.67l1.34,76.47-1,.19-22.89-31.66L448.81,58.49a5,5,0,0,0-4.38-1.9H433.18c-1.72,0-2.48.95-2.48,2.67v98.59c0,1.71.76,2.66,2.29,2.66h12c1.91,0,2.86-.95,2.86-2.66l-.19-77L473,115.7l34.14,43.1a3.75,3.75,0,0,0,3.24,1.71h12.2c1.72,0,2.48-.95,2.48-2.66V59.26c0-1.72-.76-2.67-2.48-2.67" transform="translate(81.75 82.62)"/><path class="cls-74" d="M639.89,56.59h-12a2.41,2.41,0,0,0-2.67,2.67V105l1.33,30.71-.95.19L602.7,104.26,566.09,58.49a5,5,0,0,0-4.38-1.9H550.46c-1.72,0-2.48.95-2.48,2.67v98.59c0,1.71.76,2.66,2.29,2.66h12c1.91,0,2.86-.95,2.86-2.66v-46L564,81l1-.19,25.36,34.89,34.13,43.1a3.77,3.77,0,0,0,3.25,1.71h12.2c1.72,0,2.48-.95,2.48-2.66V59.26c0-1.72-.76-2.67-2.48-2.67" transform="translate(81.75 82.62)"/><path class="cls-74" d="M859.58,126.57a36.22,36.22,0,0,0,19.83-32.79c0-20.79-16.59-37.19-39.28-37.19H792.46a2.41,2.41,0,0,0-2.67,2.67v98.59a2.55,2.55,0,0,0,2.86,2.66h12c1.72,0,2.48-.95,2.48-2.66v-26.7h33.37a10.18,10.18,0,0,0,2.67-.19l13.92,26.89a4.72,4.72,0,0,0,3.81,2.66h13.92c2.1,0,3.06-1.33,2.1-3Zm-19.45-11.63h-33V72.8h33c13.92,0,21.93,9,21.93,21,0,12.2-8,21.16-21.93,21.16" transform="translate(81.75 82.62)"/><path class="cls-74" d="M368.39,57.93a2.17,2.17,0,0,0-2.3-1.34H347a1.91,1.91,0,0,0-1.91,1.15L301.65,157.85c-.58,1.52.57,2.66,2.09,2.66h13a3.74,3.74,0,0,0,3.82-2.66l7.76-18.5h57.07l8.2,19.07a3.46,3.46,0,0,0,3.05,2.09h14.3c1.72,0,1.91-1.33,1.33-2.66ZM335,123.33l20.59-51.1h2.48l20.4,51.1Z" transform="translate(81.75 82.62)"/><path class="cls-74" d="M727.45,57.93a2.15,2.15,0,0,0-2.29-1.34H706.09a1.9,1.9,0,0,0-1.9,1.15L660.71,157.85c-.57,1.52.57,2.66,2.1,2.66h13a3.74,3.74,0,0,0,3.81-2.66l7.77-18.5h57.06l8.2,19.07a3.46,3.46,0,0,0,3,2.09H770c1.72,0,1.91-1.33,1.34-2.66Zm-33.37,65.4,20.59-51.1h2.48l20.41,51.1Z" transform="translate(81.75 82.62)"/><path class="cls-74" d="M313.46,189.12a2.24,2.24,0,1,1,4.47,0v15.59h22.82V189.12a2.23,2.23,0,1,1,4.46,0v35.59a2.23,2.23,0,1,1-4.46,0V208.9H317.93v15.81a2.24,2.24,0,1,1-4.47,0Z" transform="translate(81.75 82.62)"/><path class="cls-74" d="M368.26,227.37c-8,0-14.57-6.16-14.57-15.2v-.11c0-8.42,5.93-15.2,14-15.2,8.64,0,13.55,7.06,13.55,14.8a2,2,0,0,1-2,2H358.09c.62,6.32,5.09,9.88,10.28,9.88a11.93,11.93,0,0,0,8.42-3.39,1.92,1.92,0,0,1,1.24-.5,1.88,1.88,0,0,1,1.92,1.86,1.86,1.86,0,0,1-.67,1.41,14.85,14.85,0,0,1-11,4.41m8.64-16.89c-.45-5.31-3.5-9.95-9.32-9.95-5.08,0-8.92,4.24-9.49,9.95Z" transform="translate(81.75 82.62)"/><path class="cls-74" d="M386.56,218.22v-.12c0-6.15,5.09-9.43,12.49-9.43a31.15,31.15,0,0,1,9,1.24v-1c0-5.25-3.22-8-8.7-8a18.24,18.24,0,0,0-7.57,1.64,2.3,2.3,0,0,1-.79.17,1.93,1.93,0,0,1-1.92-1.87,2,2,0,0,1,1.19-1.81,23,23,0,0,1,9.54-2c4.13,0,7.29,1.07,9.43,3.22,2,2,3,4.8,3,8.53v16a2.06,2.06,0,0,1-2.09,2.14,2,2,0,0,1-2.09-2v-2.66a12.79,12.79,0,0,1-10.56,5c-5.43,0-10.91-3.1-10.91-9.09M408.09,216v-2.83a30.57,30.57,0,0,0-8.59-1.24c-5.48,0-8.53,2.37-8.53,6v.12c0,3.67,3.39,5.82,7.34,5.82,5.37,0,9.78-3.28,9.78-7.91" transform="translate(81.75 82.62)"/><path class="cls-74" d="M421.7,187.37a2.18,2.18,0,1,1,4.35,0v37.4a2.13,2.13,0,0,1-2.15,2.2,2.17,2.17,0,0,1-2.2-2.2Z" transform="translate(81.75 82.62)"/><path class="cls-74" d="M437.52,219V201.33h-2.37a2,2,0,0,1-1.93-1.93,2,2,0,0,1,1.93-1.92h2.37v-6.89a2.16,2.16,0,0,1,2.14-2.2,2.25,2.25,0,0,1,2.21,2.2v6.89h7.57a2,2,0,0,1,2,1.92,2,2,0,0,1-2,1.93h-7.57v17.06c0,3.55,2,4.85,4.91,4.85a12.62,12.62,0,0,0,2.66-.39,1.88,1.88,0,0,1,1.86,1.86,1.82,1.82,0,0,1-1.24,1.7,11,11,0,0,1-4.3.79c-4.68,0-8.24-2.32-8.24-8.25" transform="translate(81.75 82.62)"/><path class="cls-74" d="M458.64,187.37a2.18,2.18,0,1,1,4.35,0v15.2a11,11,0,0,1,10-5.71c7.06,0,11.19,4.75,11.19,11.7v16.21a2.18,2.18,0,1,1-4.35,0V209.63c0-5.42-2.94-8.81-8.08-8.81S463,204.49,463,210v14.8a2.12,2.12,0,0,1-2.14,2.2,2.17,2.17,0,0,1-2.21-2.2Z" transform="translate(81.75 82.62)"/><path class="cls-74" d="M521.23,191.27H509.77a2.07,2.07,0,0,1-2.09-2,2.12,2.12,0,0,1,2.09-2.09h27.45a2.12,2.12,0,0,1,2.09,2.09,2.07,2.07,0,0,1-2.09,2H525.75v33.44a2.26,2.26,0,1,1-4.52,0Z" transform="translate(81.75 82.62)"/><path class="cls-74" d="M552.08,227.37c-8,0-14.58-6.16-14.58-15.2v-.11c0-8.42,5.93-15.2,14-15.2,8.65,0,13.56,7.06,13.56,14.8a2,2,0,0,1-2,2H541.91c.62,6.32,5.08,9.88,10.28,9.88a11.93,11.93,0,0,0,8.42-3.39,1.88,1.88,0,0,1,3.16,1.36,1.84,1.84,0,0,1-.68,1.41,14.81,14.81,0,0,1-11,4.41m8.64-16.89c-.45-5.31-3.5-9.95-9.32-9.95-5.08,0-8.92,4.24-9.49,9.95Z" transform="translate(81.75 82.62)"/><path class="cls-74" d="M570.78,212.23v-.11a15.18,15.18,0,0,1,25.7-11,2,2,0,0,1,.68,1.52,2.09,2.09,0,0,1-2.09,2.1,2.23,2.23,0,0,1-1.41-.51c-2.09-1.92-4.47-3.51-8-3.51-5.93,0-10.45,5-10.45,11.3v.12c0,6.32,4.63,11.35,10.73,11.35a11.69,11.69,0,0,0,8.14-3.56,1.71,1.71,0,0,1,1.24-.57,2.05,2.05,0,0,1,2,2,2,2,0,0,1-.57,1.36,14.69,14.69,0,0,1-11,4.69,15,15,0,0,1-15-15.14" transform="translate(81.75 82.62)"/><path class="cls-74" d="M604.67,187.37a2.18,2.18,0,1,1,4.35,0v15.2a11,11,0,0,1,10-5.71c7.06,0,11.19,4.75,11.19,11.7v16.21a2.18,2.18,0,1,1-4.35,0V209.63c0-5.42-2.94-8.81-8.08-8.81S609,204.49,609,210v14.8a2.12,2.12,0,0,1-2.15,2.2,2.17,2.17,0,0,1-2.2-2.2Z" transform="translate(81.75 82.62)"/><path class="cls-74" d="M639.3,199.4a2.2,2.2,0,0,1,2.15-2.2,2.17,2.17,0,0,1,2.2,2.2v3.17a11,11,0,0,1,10-5.71c7.06,0,11.18,4.75,11.18,11.7v16.21a2.18,2.18,0,1,1-4.35,0V209.63c0-5.42-2.93-8.81-8.07-8.81s-8.76,3.67-8.76,9.15v14.8a2.13,2.13,0,0,1-2.15,2.2,2.17,2.17,0,0,1-2.2-2.2Z" transform="translate(81.75 82.62)"/><path class="cls-74" d="M672.12,212.23v-.11a15.23,15.23,0,0,1,30.45-.12v.12a15.17,15.17,0,0,1-15.31,15.25,15,15,0,0,1-15.14-15.14m26,0v-.11c0-6.27-4.69-11.42-10.85-11.42-6.33,0-10.68,5.15-10.68,11.3v.12c0,6.27,4.63,11.35,10.79,11.35,6.33,0,10.74-5.08,10.74-11.24" transform="translate(81.75 82.62)"/><path class="cls-74" d="M710.65,187.37a2.18,2.18,0,1,1,4.35,0v37.4a2.13,2.13,0,0,1-2.15,2.2,2.17,2.17,0,0,1-2.2-2.2Z" transform="translate(81.75 82.62)"/><path class="cls-74" d="M723.13,212.23v-.11a15.23,15.23,0,0,1,30.45-.12v.12a15.17,15.17,0,0,1-15.31,15.25,15,15,0,0,1-15.14-15.14m26,0v-.11c0-6.27-4.69-11.42-10.85-11.42-6.33,0-10.68,5.15-10.68,11.3v.12c0,6.27,4.63,11.35,10.8,11.35,6.32,0,10.73-5.08,10.73-11.24" transform="translate(81.75 82.62)"/><path class="cls-74" d="M762,232.39a2,2,0,0,1-1.13-1.8,2.07,2.07,0,0,1,2-1.92,1.73,1.73,0,0,1,1,.28,18.49,18.49,0,0,0,10.34,3.16c6.44,0,10.62-3.56,10.62-10.39v-3.45c-2.54,3.39-6.1,6.16-11.47,6.16a13.5,13.5,0,0,1-13.72-13.67v-.11a13.57,13.57,0,0,1,13.72-13.79,13.71,13.71,0,0,1,11.42,5.88v-3.33a2.16,2.16,0,0,1,2.14-2.21,2.2,2.2,0,0,1,2.2,2.21V221.6c0,4.52-1.35,8-3.72,10.34-2.6,2.6-6.5,3.9-11.13,3.9a22.78,22.78,0,0,1-12.2-3.45m22.88-21.69v-.11c0-6-5.2-9.89-10.74-9.89S764,204.54,764,210.53v.12a9.89,9.89,0,0,0,10.11,9.94c5.54,0,10.74-4,10.74-9.89" transform="translate(81.75 82.62)"/><path class="cls-74" d="M798.6,188.33a2.58,2.58,0,0,1,5.14,0v.74a2.58,2.58,0,0,1-5.14,0Zm.4,11.07a2.19,2.19,0,0,1,2.14-2.2,2.17,2.17,0,0,1,2.21,2.2v25.37a2.13,2.13,0,0,1-2.15,2.2,2.17,2.17,0,0,1-2.2-2.2Z" transform="translate(81.75 82.62)"/><path class="cls-74" d="M826.05,227.37c-8,0-14.57-6.16-14.57-15.2v-.11c0-8.42,5.93-15.2,14-15.2,8.64,0,13.56,7.06,13.56,14.8a2,2,0,0,1-2,2H815.89c.62,6.32,5.08,9.88,10.28,9.88a12,12,0,0,0,8.42-3.39,1.88,1.88,0,0,1,3.16,1.36,1.87,1.87,0,0,1-.68,1.41,14.83,14.83,0,0,1-11,4.41m8.65-16.89c-.45-5.31-3.5-9.95-9.32-9.95-5.09,0-8.93,4.24-9.49,9.95Z" transform="translate(81.75 82.62)"/><path class="cls-74" d="M845,223.58a2,2,0,0,1-.79-1.58,1.9,1.9,0,0,1,1.92-1.86,1.71,1.71,0,0,1,1.07.34,16.44,16.44,0,0,0,9.27,3.1c3.5,0,6-1.8,6-4.63v-.11c0-2.94-3.44-4.07-7.28-5.14-4.58-1.3-9.67-2.88-9.67-8.25v-.11c0-5,4.18-8.36,10-8.36a20.44,20.44,0,0,1,9.32,2.48,2.12,2.12,0,0,1,1.07,1.81,1.9,1.9,0,0,1-1.92,1.87,2.26,2.26,0,0,1-1-.23,15.81,15.81,0,0,0-7.63-2.26c-3.44,0-5.65,1.81-5.65,4.23V205c0,2.77,3.62,3.84,7.52,5,4.52,1.35,9.38,3.1,9.38,8.36v.11c0,5.53-4.58,8.75-10.4,8.75A20.19,20.19,0,0,1,845,223.58" transform="translate(81.75 82.62)"/></g></g></svg>