<?xml version="1.0" encoding="utf-8"?>
<!-- Generator: Adobe Illustrator 25.0.0, SVG Export Plug-In . SVG Version: 6.00 Build 0)  -->
<svg version="1.1" id="Capa_1" xmlns="http://www.w3.org/2000/svg" xmlns:xlink="http://www.w3.org/1999/xlink" x="0px" y="0px"
	 viewBox="0 0 150 150" style="enable-background:new 0 0 150 150;" xml:space="preserve">
<style type="text/css">
	.st0{fill:url(#SVGID_1_);}
	.st1{fill:url(#SVGID_2_);}
	.st2{fill:url(#SVGID_3_);}
	.st3{fill:url(#SVGID_4_);}
</style>
<g>
	<linearGradient id="SVGID_1_" gradientUnits="userSpaceOnUse" x1="5.5957" y1="75" x2="144.4043" y2="75">
		<stop  offset="0" style="stop-color:#C800FF"/>
		<stop  offset="1" style="stop-color:#6400FF"/>
	</linearGradient>
	<path class="st0" d="M136.08,30.58h-9.96L111.9,16.36c-1.57-1.57-3.67-2.44-5.89-2.44c-8.21,0.02-85.69,0-92.09,0
		c-4.59,0-8.33,3.74-8.33,8.33v105.49c0,4.59,3.74,8.33,8.33,8.33h122.15c4.59,0,8.33-3.74,8.33-8.33V38.91
		C144.4,34.32,140.67,30.58,136.08,30.58z M107.98,20.29l10.29,10.29H92.81l-11.1-11.1h24.31
		C106.76,19.48,107.45,19.77,107.98,20.29z M74.66,20.29l10.29,10.29H59.49l-11.1-11.1H72.7C73.44,19.48,74.14,19.77,74.66,20.29z
		 M138.85,127.75c0,1.53-1.25,2.78-2.78,2.78H13.92c-1.53,0-2.78-1.24-2.78-2.78V22.25c0-1.53,1.25-2.78,2.78-2.78h26.61
		l15.84,15.84c0.52,0.52,1.23,0.81,1.96,0.81h77.73c1.53,0,2.78,1.25,2.78,2.78V127.75z"/>
	<linearGradient id="SVGID_2_" gradientUnits="userSpaceOnUse" x1="22.2528" y1="87.4928" x2="127.7472" y2="87.4928">
		<stop  offset="0" style="stop-color:#C800FF"/>
		<stop  offset="1" style="stop-color:#6400FF"/>
	</linearGradient>
	<path class="st1" d="M124.97,55.57H25.03c-1.53,0-2.78,1.24-2.78,2.78v58.3c0,1.53,1.24,2.78,2.78,2.78h99.94
		c1.53,0,2.78-1.24,2.78-2.78v-58.3C127.75,56.81,126.5,55.57,124.97,55.57z M122.19,113.87H27.81V61.12h94.39V113.87z"/>
	<linearGradient id="SVGID_3_" gradientUnits="userSpaceOnUse" x1="88.8809" y1="105.5379" x2="113.8664" y2="105.5379">
		<stop  offset="0" style="stop-color:#C800FF"/>
		<stop  offset="1" style="stop-color:#6400FF"/>
	</linearGradient>
	<path class="st2" d="M111.09,102.76H91.66c-1.53,0-2.78,1.24-2.78,2.78s1.24,2.78,2.78,2.78h19.43c1.53,0,2.78-1.24,2.78-2.78
		S112.62,102.76,111.09,102.76z"/>
	<linearGradient id="SVGID_4_" gradientUnits="userSpaceOnUse" x1="80.5523" y1="94.4332" x2="113.8664" y2="94.4332">
		<stop  offset="0" style="stop-color:#C800FF"/>
		<stop  offset="1" style="stop-color:#6400FF"/>
	</linearGradient>
	<path class="st3" d="M83.33,97.21h27.76c1.53,0,2.78-1.24,2.78-2.78c0-1.53-1.24-2.78-2.78-2.78H83.33c-1.53,0-2.78,1.24-2.78,2.78
		C80.55,95.97,81.8,97.21,83.33,97.21z"/>
</g>
</svg>
