<?xml version="1.0" encoding="utf-8"?>
<!-- Generator: Adobe Illustrator 25.0.0, SVG Export Plug-In . SVG Version: 6.00 Build 0)  -->
<svg version="1.1" id="Capa_1" xmlns="http://www.w3.org/2000/svg" xmlns:xlink="http://www.w3.org/1999/xlink" x="0px" y="0px"
	 viewBox="0 0 150 150" style="enable-background:new 0 0 150 150;" xml:space="preserve">
<style type="text/css">
	.st0{fill:url(#SVGID_1_);}
</style>
<linearGradient id="SVGID_1_" gradientUnits="userSpaceOnUse" x1="8.7394" y1="75" x2="141.2606" y2="75">
	<stop  offset="0" style="stop-color:#C800FF"/>
	<stop  offset="1" style="stop-color:#6400FF"/>
</linearGradient>
<path class="st0" d="M139.2,35.17h-4.86v-5.15c0-1.18-0.88-2.06-1.91-2.06c-5.6-1.18-12.22-1.91-18.11-1.91
	c-14.72,0-28.27,3.53-39.46,10.31c-11.19-6.77-24.74-10.31-39.46-10.31c-6.04,0-12.66,0.74-18.11,1.91c-1.18,0-2.06,0.88-2.06,2.06
	v5.15H10.8c-1.18,0-2.06,0.88-2.06,2.06v78.04c0,1.18,0.88,2.06,2.06,2.06h48.3v0.59c0,3.39,2.8,6.04,6.04,6.04h19.73
	c3.39,0,6.18-2.8,6.18-6.18v-0.59h48.15c1.18,0,2.06-0.88,2.06-2.06V37.08C141.26,36.05,140.38,35.17,139.2,35.17L139.2,35.17z
	 M19.49,102.46c5.01-1.03,10.75-1.62,16.05-1.62c14.28,0,27.39,3.53,37.99,10.01c0.29,0.15,0.74,0.29,1.03,0.29h0.74
	c0.44,0,0.74-0.15,1.03-0.29c10.6-6.63,23.71-10.01,37.99-10.01c5.15,0,10.75,0.59,16.05,1.62v2.8c-5.01-0.88-10.75-1.47-16.05-1.47
	c-14.72,0-28.27,3.53-39.46,10.31c-11.19-6.77-24.74-10.31-39.46-10.31c-5.15,0-10.75,0.44-16.05,1.47l0-2.8H19.49z M130.22,31.78
	v66.41c-5.01-0.88-10.75-1.47-16.05-1.47c-13.69,0-26.5,3.24-37.25,9.13V39.88c10.45-6.33,23.26-9.72,37.25-9.72
	C119.47,30.16,125.36,30.75,130.22,31.78L130.22,31.78z M35.39,30.16c13.99,0,26.95,3.39,37.55,9.87V106
	c-10.75-6.04-23.56-9.28-37.55-9.28c-5.3,0-10.9,0.59-16.05,1.47V31.78C24.5,30.75,30.24,30.16,35.39,30.16L35.39,30.16z
	 M137.14,113.21H88.99c-0.59,0-1.03,0.15-1.47,0.59c-0.44,0.44-0.59,0.88-0.59,1.47v2.65c0,1.03-0.88,2.06-2.06,2.06l-19.73,0
	c-1.03,0-2.06-0.88-2.06-2.06v-2.65c0-1.18-0.88-2.06-2.06-2.06l-48.15,0V39.29h2.5v68.47c0,0.59,0.44,1.18,0.88,1.62
	c0.44,0.44,1.32,0.44,1.91,0.29c5.3-1.18,11.49-1.77,17.23-1.77c14.28,0,27.39,3.53,37.99,10.01c0.29,0.15,0.74,0.29,1.03,0.29h0.74
	c0.44,0,0.74-0.15,1.03-0.29c10.6-6.63,23.71-10.01,37.99-10.01c5.74,0,12.07,0.74,17.23,1.77h0.29c0.74,0.15,1.47-0.15,1.91-0.74
	c0.15-0.15,0.29-0.44,0.44-0.74c0-0.15,0.15-0.44,0.15-0.59l0-68.32h2.8v73.92L137.14,113.21z"/>
</svg>
