<?xml version="1.0" encoding="utf-8"?>
<!-- Generator: Adobe Illustrator 25.0.0, SVG Export Plug-In . SVG Version: 6.00 Build 0)  -->
<svg version="1.1" id="Capa_1" xmlns="http://www.w3.org/2000/svg" xmlns:xlink="http://www.w3.org/1999/xlink" x="0px" y="0px"
	 viewBox="0 0 150 150" style="enable-background:new 0 0 150 150;" xml:space="preserve">
<style type="text/css">
	.st0{fill:url(#SVGID_1_);}
	.st1{fill:url(#SVGID_2_);}
	.st2{fill:url(#SVGID_3_);}
	.st3{fill:url(#SVGID_4_);}
	.st4{fill:url(#SVGID_5_);}
	.st5{fill:url(#SVGID_6_);}
	.st6{fill:url(#SVGID_7_);}
</style>
<g>
	<g>
		<linearGradient id="SVGID_1_" gradientUnits="userSpaceOnUse" x1="43.2827" y1="116.1382" x2="124.8832" y2="116.1382">
			<stop  offset="0" style="stop-color:#C800FF"/>
			<stop  offset="1" style="stop-color:#6400FF"/>
		</linearGradient>
		<path class="st0" d="M84.08,138.53c-24.02,0-40.8-14.58-40.8-35.46v-6.29c0-1.68,1.36-3.03,3.03-3.03s3.03,1.36,3.03,3.03v6.29
			c0,20.31,17.44,29.4,34.73,29.4c17.29,0,34.73-9.09,34.73-29.4c0-1.68,1.36-3.03,3.03-3.03c1.67,0,3.03,1.36,3.03,3.03
			C124.88,123.95,108.11,138.53,84.08,138.53z"/>
	</g>
	<g>
		<linearGradient id="SVGID_2_" gradientUnits="userSpaceOnUse" x1="99.9309" y1="84.1872" x2="143.7642" y2="84.1872">
			<stop  offset="0" style="stop-color:#C800FF"/>
			<stop  offset="1" style="stop-color:#6400FF"/>
		</linearGradient>
		<path class="st1" d="M121.85,106.1c-12.09,0-21.92-9.83-21.92-21.92c0-12.09,9.83-21.92,21.92-21.92
			c12.08,0,21.92,9.83,21.92,21.92C143.76,96.27,133.93,106.1,121.85,106.1z M121.85,68.34c-8.74,0-15.85,7.11-15.85,15.85
			c0,8.74,7.11,15.85,15.85,15.85s15.85-7.11,15.85-15.85C137.7,75.45,130.59,68.34,121.85,68.34z"/>
	</g>
	<g>
		<linearGradient id="SVGID_3_" gradientUnits="userSpaceOnUse" x1="111.3418" y1="84.1872" x2="132.3533" y2="84.1872">
			<stop  offset="0" style="stop-color:#C800FF"/>
			<stop  offset="1" style="stop-color:#6400FF"/>
		</linearGradient>
		<path class="st2" d="M121.85,94.69c-5.79,0-10.51-4.71-10.51-10.5c0-5.79,4.71-10.51,10.51-10.51s10.5,4.71,10.5,10.51
			C132.35,89.98,127.64,94.69,121.85,94.69z M121.85,79.75c-2.45,0-4.44,1.99-4.44,4.44c0,2.45,1.99,4.44,4.44,4.44
			c2.45,0,4.44-1.99,4.44-4.44C126.28,81.74,124.29,79.75,121.85,79.75z"/>
	</g>
	<g>
		<linearGradient id="SVGID_4_" gradientUnits="userSpaceOnUse" x1="35.8413" y1="91.6586" x2="56.8528" y2="91.6586">
			<stop  offset="0" style="stop-color:#C800FF"/>
			<stop  offset="1" style="stop-color:#6400FF"/>
		</linearGradient>
		<path class="st3" d="M53.82,98.43c-1.67,0-3.03-1.36-3.03-3.03c0-2.45-1.99-4.44-4.44-4.44c-2.45,0-4.44,1.99-4.44,4.44
			c0,1.68-1.36,3.03-3.03,3.03c-1.67,0-3.03-1.36-3.03-3.03c0-5.79,4.71-10.51,10.5-10.51s10.51,4.71,10.51,10.51
			C56.85,97.07,55.49,98.43,53.82,98.43z"/>
	</g>
	<g>
		<linearGradient id="SVGID_5_" gradientUnits="userSpaceOnUse" x1="6.2358" y1="57.2677" x2="86.478" y2="57.2677">
			<stop  offset="0" style="stop-color:#C800FF"/>
			<stop  offset="1" style="stop-color:#6400FF"/>
		</linearGradient>
		<path class="st4" d="M60.71,99.81H31.93c-7.69,0-14.39-5.7-15.59-13.26L6.28,25.49c-0.26-3,0.67-5.75,2.54-7.77
			c1.78-1.93,4.18-3,6.75-3H33.5c1.67,0,3.03,1.36,3.03,3.03s-1.36,3.03-3.03,3.03H15.56c-0.86,0-1.67,0.37-2.28,1.04
			c-0.72,0.78-1.08,1.84-0.99,2.92l10.04,60.84c0.74,4.66,4.86,8.16,9.6,8.16h28.78c4.85,0,8.88-3.41,9.59-8.11L80.37,24.5
			c0.2-1.18-0.38-2.06-0.73-2.48c-0.66-0.78-1.6-1.23-2.57-1.23H59.13c-1.67,0-3.03-1.36-3.03-3.03s1.36-3.03,3.03-3.03h17.94
			c2.76,0,5.38,1.23,7.2,3.37c1.76,2.08,2.52,4.78,2.09,7.4L76.29,86.57C75.14,94.22,68.58,99.81,60.71,99.81z"/>
	</g>
	<g>
		<linearGradient id="SVGID_6_" gradientUnits="userSpaceOnUse" x1="30.4705" y1="19.2765" x2="36.5393" y2="19.2765">
			<stop  offset="0" style="stop-color:#C800FF"/>
			<stop  offset="1" style="stop-color:#6400FF"/>
		</linearGradient>
		<path class="st5" d="M33.5,27.09c-1.67,0-3.03-1.36-3.03-3.03V14.5c0-1.68,1.36-3.03,3.03-3.03s3.03,1.36,3.03,3.03v9.55
			C36.54,25.73,35.18,27.09,33.5,27.09z"/>
	</g>
	<g>
		<linearGradient id="SVGID_7_" gradientUnits="userSpaceOnUse" x1="56.0975" y1="19.2765" x2="62.1663" y2="19.2765">
			<stop  offset="0" style="stop-color:#C800FF"/>
			<stop  offset="1" style="stop-color:#6400FF"/>
		</linearGradient>
		<path class="st6" d="M59.13,27.09c-1.67,0-3.03-1.36-3.03-3.03V14.5c0-1.68,1.36-3.03,3.03-3.03s3.03,1.36,3.03,3.03v9.55
			C62.17,25.73,60.81,27.09,59.13,27.09z"/>
	</g>
</g>
</svg>
