<?xml version="1.0" encoding="utf-8"?>
<!-- Generator: Adobe Illustrator 25.0.0, SVG Export Plug-In . SVG Version: 6.00 Build 0)  -->
<svg version="1.1" id="Capa_1" xmlns="http://www.w3.org/2000/svg" xmlns:xlink="http://www.w3.org/1999/xlink" x="0px" y="0px"
	 viewBox="0 0 150 150" style="enable-background:new 0 0 150 150;" xml:space="preserve">
<style type="text/css">
	.st0{fill:url(#SVGID_1_);}
	.st1{fill:url(#SVGID_2_);}
	.st2{fill:url(#SVGID_3_);}
	.st3{fill:url(#SVGID_4_);}
	.st4{fill:url(#SVGID_5_);}
	.st5{fill:url(#SVGID_6_);}
</style>
<g>
	<g>
		<linearGradient id="SVGID_1_" gradientUnits="userSpaceOnUse" x1="46.5424" y1="95.2376" x2="92.5074" y2="95.2376">
			<stop  offset="0" style="stop-color:#C800FF"/>
			<stop  offset="1" style="stop-color:#6400FF"/>
		</linearGradient>
		<path class="st0" d="M75.03,143.99c-1.36,0-2.46-1.1-2.46-2.46v-2.41c0-2.05-0.86-3.97-2.3-5.13c-3.1-2.5-4.45-5.03-4.04-7.52
			c0.27-1.6,1.43-3.82,5.44-5.26c6.02-2.68,7.91-4.19,8.5-4.84c-1.06-0.82-4.13-1.97-6.45-2.84c-0.82-0.31-1.67-0.62-2.53-0.96
			c-6.31-2.69-12.66-6.09-12.59-11.11c0.06-4.02,4.07-7.38,13.01-10.89c14.86-5.58,15.99-9.18,15.98-10.15
			c-0.01-1.72-2.81-4.77-16.04-9.5c-17.29-6.19-25-11.49-25-17.2c0-6.03,9.98-7.05,13.04-7.22c0.13,0,0.26,0,0.39,0.01l7.69,0.79
			c0.93,0.1,1.73,0.71,2.05,1.59c0.33,0.88,0.13,1.87-0.51,2.55c-0.37,0.4-3.73,3.9-8.18,3.73c-1.6-0.05-3.93-0.62-6.11-3
			c-1.89,0.48-3.23,1.1-3.46,1.6c0.01,0.75,1.06,5.11,21.74,12.51c11.56,4.14,19.26,8.12,19.31,14.1c0.04,5.24-5.86,9.8-19.14,14.78
			c-9.54,3.75-9.85,6.11-9.85,6.37c0,0.4,0.43,2.59,9.52,6.48c0.77,0.29,1.6,0.61,2.41,0.91c5.66,2.12,9.74,3.65,9.85,7.23
			c0.09,3.16-3.1,5.77-11.79,9.62c-1.9,0.69-2.38,1.33-2.41,1.51c-0.04,0.25,0.28,1.26,2.27,2.87c2.63,2.12,4.14,5.39,4.14,8.97
			v2.41C77.5,142.89,76.4,143.99,75.03,143.99z"/>
	</g>
	<g>
		<linearGradient id="SVGID_2_" gradientUnits="userSpaceOnUse" x1="57.6033" y1="95.2376" x2="103.5707" y2="95.2376">
			<stop  offset="0" style="stop-color:#C800FF"/>
			<stop  offset="1" style="stop-color:#6400FF"/>
		</linearGradient>
		<path class="st1" d="M75.03,143.99c-1.36,0-2.46-1.1-2.46-2.46v-2.41c0-3.58,1.51-6.85,4.13-8.97c2.01-1.62,2.33-2.63,2.29-2.89
			c-0.03-0.17-0.5-0.8-2.22-1.42c-8.86-3.92-12.05-6.53-11.96-9.69c0.11-3.59,4.2-5.12,9.85-7.23c0.8-0.3,1.64-0.61,2.49-0.94
			c9.01-3.85,9.44-6.05,9.44-6.44c0-0.26-0.31-2.61-9.88-6.38c-13.24-4.97-19.14-9.53-19.1-14.77c0.05-5.99,7.75-9.97,19.31-14.1
			c20.68-7.4,21.73-11.76,21.73-12.56c-0.24-0.5-1.63-1.09-3.45-1.54c-2.18,2.37-4.5,2.94-6.1,2.99c-4.49,0.11-7.81-3.34-8.18-3.73
			c-0.64-0.68-0.84-1.67-0.51-2.55c0.33-0.88,1.12-1.49,2.05-1.59l7.69-0.79c0.13-0.01,0.26-0.01,0.39-0.01
			c3.06,0.17,13.04,1.19,13.04,7.22c0,5.71-7.71,11.02-25,17.2c-13.24,4.74-16.03,7.78-16.04,9.5c-0.01,0.97,1.12,4.57,15.95,10.13
			c8.97,3.53,12.98,6.89,13.04,10.91c0.07,5.02-6.28,8.42-12.51,11.08c-0.95,0.37-1.79,0.69-2.62,0.99
			c-2.31,0.87-5.38,2.01-6.44,2.83c0.59,0.65,2.51,2.17,8.66,4.9c3.82,1.37,4.98,3.57,5.25,5.17c0.42,2.5-0.95,5.03-4.06,7.54
			c-1.44,1.16-2.3,3.08-2.3,5.13v2.41C77.5,142.89,76.4,143.99,75.03,143.99z"/>
	</g>
	<g>
		<linearGradient id="SVGID_3_" gradientUnits="userSpaceOnUse" x1="72.5024" y1="81.6169" x2="77.4302" y2="81.6169">
			<stop  offset="0" style="stop-color:#C800FF"/>
			<stop  offset="1" style="stop-color:#6400FF"/>
		</linearGradient>
		<path class="st2" d="M74.97,143.99c-1.36,0-2.46-1.1-2.46-2.46V21.71c0-1.36,1.1-2.46,2.46-2.46s2.46,1.1,2.46,2.46v119.82
			C77.43,142.89,76.33,143.99,74.97,143.99z"/>
	</g>
	<g>
		<linearGradient id="SVGID_4_" gradientUnits="userSpaceOnUse" x1="6.0105" y1="43.6972" x2="77.4302" y2="43.6972">
			<stop  offset="0" style="stop-color:#C800FF"/>
			<stop  offset="1" style="stop-color:#6400FF"/>
		</linearGradient>
		<path class="st3" d="M48.91,65.16c-1.89,0-3.8-0.52-5.41-1.4c-3.16,1.48-6.57,0.31-8.75-1.05c-3.06,1.02-7.24,0.97-9.83-2.38
			c-0.01,0-0.02,0-0.03,0c-4.4,0-6.96-2.49-8.2-4.78c-0.88,0-2.08-0.08-3.29-0.41c-3.82-1.03-6.42-3.96-7.33-8.23
			c-0.17-0.8,0.07-1.63,0.63-2.22c0.57-0.59,1.39-0.86,2.19-0.72C26.15,46.9,38.36,33.9,44.24,27.66c0.83-0.89,1.55-1.65,2.15-2.23
			c2.8-2.73,6.37-3.77,9.79-2.88c4.12,1.08,7.37,4.75,8.94,10.07c2.46,8.34,8.6,7.26,9.3,7.11c0.74-0.16,1.5,0.02,2.08,0.49
			c0.58,0.47,0.93,1.17,0.93,1.92c0,8.88-2.44,15.27-7.24,18.97c-5.73,4.42-13.01,3.69-16.8,2.88
			C52.03,64.8,50.48,65.16,48.91,65.16z M43.54,58.37c0.55,0,1.1,0.18,1.55,0.55c1.79,1.44,4.82,1.72,6.12,0.56
			c0.62-0.55,1.47-0.75,2.27-0.54c2.01,0.53,8.91,1.96,13.7-1.74c3.09-2.38,4.85-6.56,5.24-12.43c-4.15-0.23-9.63-2.65-12.02-10.77
			c-1.07-3.62-3.06-6.06-5.46-6.69c-1.74-0.45-3.55,0.13-5.1,1.65c-0.55,0.54-1.22,1.25-2,2.07C41.88,37.36,30,49.91,12.67,49.31
			c1.87,1.71,4.45,1.35,5.12,1.22c1.31-0.26,2.59,0.56,2.89,1.85c0.21,0.8,1.23,3.47,5.21,2.96c1.06-0.13,2.04,0.4,2.51,1.32
			c1.47,2.88,4.9,1.38,5.57,1.05c0.87-0.43,1.94-0.31,2.69,0.32c0.02,0.02,3.2,2.62,5.32,0.89C42.44,58.56,42.99,58.37,43.54,58.37z
			"/>
	</g>
	<g>
		<linearGradient id="SVGID_5_" gradientUnits="userSpaceOnUse" x1="72.5698" y1="43.697" x2="143.9895" y2="43.697">
			<stop  offset="0" style="stop-color:#C800FF"/>
			<stop  offset="1" style="stop-color:#6400FF"/>
		</linearGradient>
		<path class="st4" d="M101.09,65.16c-1.57,0-3.13-0.36-4.48-1.17c-3.79,0.82-11.07,1.55-16.8-2.88
			c-4.81-3.71-7.24-10.09-7.24-18.97c0-0.75,0.34-1.47,0.94-1.93c0.59-0.46,1.35-0.64,2.08-0.47c0.7,0.15,6.84,1.22,9.29-7.11
			c1.56-5.32,4.82-8.99,8.94-10.07c3.4-0.89,6.99,0.15,9.79,2.88c0.6,0.58,1.31,1.34,2.15,2.23c5.88,6.25,18.12,19.24,35.36,16.32
			c0.8-0.14,1.62,0.13,2.19,0.72c0.56,0.59,0.8,1.42,0.63,2.22c-0.9,4.28-3.51,7.2-7.33,8.23c-1.22,0.33-2.39,0.41-3.29,0.41
			c-1.24,2.29-3.81,4.78-8.2,4.78c-0.01,0-0.02,0-0.03,0c-2.6,3.35-6.78,3.4-9.83,2.38c-2.18,1.36-5.59,2.53-8.75,1.05
			C104.89,64.64,102.98,65.16,101.09,65.16z M97.15,58.86c0.6,0,1.18,0.22,1.64,0.63c1.3,1.16,4.33,0.88,6.12-0.56
			c0.9-0.73,2.2-0.73,3.1,0c2.12,1.72,5.3-0.87,5.33-0.9c0.75-0.63,1.82-0.75,2.69-0.31c0.66,0.32,4.08,1.83,5.56-1.06
			c0.47-0.93,1.44-1.46,2.51-1.32c3.99,0.52,5-2.16,5.22-2.99c0.34-1.27,1.63-2.08,2.9-1.81c0.66,0.13,3.23,0.49,5.1-1.22
			c-17.39,0.67-29.21-11.95-35.16-18.27c-0.78-0.83-1.44-1.53-2-2.07c-1.56-1.51-3.36-2.1-5.1-1.65c-2.4,0.63-4.4,3.07-5.46,6.69
			c-2.39,8.12-7.87,10.54-12.02,10.77c0.39,5.87,2.15,10.04,5.24,12.43c4.79,3.69,11.69,2.26,13.7,1.74
			C96.73,58.89,96.94,58.86,97.15,58.86z"/>
	</g>
	<g>
		<linearGradient id="SVGID_6_" gradientUnits="userSpaceOnUse" x1="65.9264" y1="15.0915" x2="84.0832" y2="15.0915">
			<stop  offset="0" style="stop-color:#C800FF"/>
			<stop  offset="1" style="stop-color:#6400FF"/>
		</linearGradient>
		<path class="st5" d="M75,24.17c-5,0-9.08-4.07-9.08-9.08S70,6.01,75,6.01s9.08,4.07,9.08,9.08S80.01,24.17,75,24.17z M75,10.94
			c-2.29,0-4.15,1.86-4.15,4.15s1.86,4.15,4.15,4.15s4.15-1.86,4.15-4.15S77.29,10.94,75,10.94z"/>
	</g>
</g>
</svg>
