<?xml version="1.0" encoding="utf-8"?>
<!-- Generator: Adobe Illustrator 25.0.0, SVG Export Plug-In . SVG Version: 6.00 Build 0)  -->
<svg version="1.1" id="Capa_1" xmlns="http://www.w3.org/2000/svg" xmlns:xlink="http://www.w3.org/1999/xlink" x="0px" y="0px"
	 viewBox="0 0 150 150" style="enable-background:new 0 0 150 150;" xml:space="preserve">
<style type="text/css">
	.st0{fill:url(#SVGID_1_);}
	.st1{fill:url(#SVGID_2_);}
</style>
<g>
	<linearGradient id="SVGID_1_" gradientUnits="userSpaceOnUse" x1="59.7761" y1="20.1571" x2="90.2229" y2="20.1571">
		<stop  offset="0" style="stop-color:#C800FF"/>
		<stop  offset="1" style="stop-color:#6400FF"/>
	</linearGradient>
	<path class="st0" d="M75,35.38c8.53,0,15.22-6.7,15.22-15.22c0-8.53-6.7-15.22-15.22-15.22c-8.53,0-15.22,6.7-15.22,15.22
		C59.78,28.68,66.47,35.38,75,35.38z M75,11.02c5.18,0,9.13,3.96,9.13,9.13s-3.96,9.13-9.13,9.13c-5.18,0-9.13-3.96-9.13-9.13
		S69.82,11.02,75,11.02z"/>
	<linearGradient id="SVGID_2_" gradientUnits="userSpaceOnUse" x1="26.2837" y1="81.0894" x2="123.7163" y2="81.0894">
		<stop  offset="0" style="stop-color:#C800FF"/>
		<stop  offset="1" style="stop-color:#6400FF"/>
	</linearGradient>
	<path class="st1" d="M114.58,17.11c-5.18,0-9.13,3.96-9.13,9.13c0,3.05-0.91,18.27-19.79,18.27H64.34
		c-18.57,0-19.79-15.22-19.79-18.27c0-4.87-4.26-9.13-9.13-9.13c-7.92,0-9.13,6.7-9.13,9.13c0,10.35,5.79,30.14,27.4,35.32v73.99
		c0,4.57,3.35,8.53,7.61,9.44c2.74,0.3,5.48-0.3,7.31-2.13c2.13-1.83,3.35-4.26,3.35-7v-30.45c0-1.83,1.22-3.05,3.05-3.05
		c1.83,0,3.05,1.22,3.05,3.05v30.14c0,5.18,3.65,9.44,9.13,9.44c4.87,0,9.13-3.65,9.13-9.13V61.57c21.62-5.18,27.4-24.97,27.4-35.32
		C123.72,23.81,122.19,17.11,114.58,17.11L114.58,17.11z M117.63,26.25c0,9.44-5.18,26.49-24.97,29.84
		c-1.52,0.3-2.44,1.52-2.44,3.05v76.73c0,3.05-2.74,3.05-3.65,3.05c-1.52-0.3-2.44-1.83-2.44-3.35v-30.14
		c0-5.18-3.96-9.13-9.13-9.13c-5.18,0-9.13,3.96-9.13,9.13v30.45c0,3.05-2.74,3.05-3.65,3.05c-1.52-0.3-2.44-1.83-2.44-3.35V59.13
		c0-1.52-1.22-2.74-2.44-3.05c-19.79-3.35-24.97-20.4-24.97-29.84c0-0.91,0.3-3.05,3.05-3.05c1.52,0,3.05,1.22,3.05,3.05
		c0,9.13,5.79,24.36,25.88,24.36h21.31c20.4,0,25.88-15.22,25.88-24.36c0-1.83,1.52-3.05,3.05-3.05
		C117.32,23.2,117.63,25.33,117.63,26.25L117.63,26.25z"/>
</g>
</svg>
