<?xml version="1.0" encoding="utf-8"?>
<!-- Generator: Adobe Illustrator 25.0.0, SVG Export Plug-In . SVG Version: 6.00 Build 0)  -->
<svg version="1.1" id="Capa_1" xmlns="http://www.w3.org/2000/svg" xmlns:xlink="http://www.w3.org/1999/xlink" x="0px" y="0px"
	 viewBox="0 0 150 150" style="enable-background:new 0 0 150 150;" xml:space="preserve">
<style type="text/css">
	.st0{fill:url(#SVGID_1_);}
	.st1{fill:url(#SVGID_2_);}
</style>
<g>
	<g>
		<linearGradient id="SVGID_1_" gradientUnits="userSpaceOnUse" x1="66.7891" y1="48.8108" x2="141.7689" y2="48.8108">
			<stop  offset="0" style="stop-color:#C800FF"/>
			<stop  offset="1" style="stop-color:#6400FF"/>
		</linearGradient>
		<path class="st0" d="M112.95,90.22c-0.54,0-1.08-0.18-1.52-0.54L97.33,78.24H73.39c-3.64,0-6.6-2.96-6.6-6.6V14.01
			c0-3.64,2.96-6.6,6.6-6.6h61.77c3.64,0,6.6,2.96,6.6,6.6v57.63c0,3.64-2.96,6.6-6.6,6.6h-19.81v9.57c0,0.93-0.53,1.77-1.37,2.17
			C113.66,90.14,113.31,90.22,112.95,90.22z M73.39,12.21c-0.99,0-1.79,0.8-1.79,1.79v57.63c0,0.99,0.8,1.79,1.79,1.79h24.79
			c0.55,0,1.09,0.19,1.52,0.54l10.85,8.8v-6.93c0-1.33,1.08-2.41,2.41-2.41h22.21c0.99,0,1.79-0.8,1.79-1.79V14.01
			c0-0.99-0.8-1.79-1.79-1.79H73.39z"/>
	</g>
	<g>
		<linearGradient id="SVGID_2_" gradientUnits="userSpaceOnUse" x1="8.2311" y1="101.1904" x2="83.2132" y2="101.1904">
			<stop  offset="0" style="stop-color:#C800FF"/>
			<stop  offset="1" style="stop-color:#6400FF"/>
		</linearGradient>
		<path class="st1" d="M51.99,142.6c-0.54,0-1.08-0.18-1.52-0.54l-14.11-11.44H14.83c-3.64,0-6.6-2.96-6.6-6.6V66.39
			c0-3.64,2.96-6.6,6.6-6.6h54.24c1.33,0,2.41,1.08,2.41,2.41s-1.08,2.41-2.41,2.41H14.83c-0.99,0-1.79,0.8-1.79,1.79v57.63
			c0,0.99,0.8,1.79,1.79,1.79h22.38c0.55,0,1.09,0.19,1.52,0.54l10.85,8.79v-6.93c0-1.33,1.08-2.41,2.41-2.41h24.62
			c0.99,0,1.79-0.8,1.79-1.79v-44.9c0-1.33,1.08-2.41,2.41-2.41c1.33,0,2.41,1.08,2.41,2.41v44.9c0,3.64-2.96,6.6-6.6,6.6H54.39
			v9.57c0,0.93-0.53,1.77-1.37,2.17C52.69,142.52,52.34,142.6,51.99,142.6z"/>
	</g>
</g>
</svg>
