<?xml version="1.0" encoding="utf-8"?>
<!-- Generator: Adobe Illustrator 25.0.0, SVG Export Plug-In . SVG Version: 6.00 Build 0)  -->
<svg version="1.1" id="Capa_1" xmlns="http://www.w3.org/2000/svg" xmlns:xlink="http://www.w3.org/1999/xlink" x="0px" y="0px"
	 viewBox="0 0 150 150" style="enable-background:new 0 0 150 150;" xml:space="preserve">
<style type="text/css">
	.st0{fill:url(#SVGID_1_);}
	.st1{fill:url(#SVGID_2_);}
	.st2{fill:url(#SVGID_3_);}
</style>
<g>
	<linearGradient id="SVGID_1_" gradientUnits="userSpaceOnUse" x1="21.8519" y1="75" x2="128.1481" y2="75">
		<stop  offset="0" style="stop-color:#C800FF"/>
		<stop  offset="1" style="stop-color:#6400FF"/>
	</linearGradient>
	<path class="st0" d="M125.43,143c1.5,0,2.72-1.22,2.72-2.72V53.24C128.15,27.74,107.41,7,81.91,7S35.67,27.74,35.67,53.24V63.3
		L23.22,81.96c-2.71,4.07-1.26,9.62,3.14,11.83l9.3,4.65v11.92c0,4.5,3.66,8.16,8.16,8.16h21.76v21.76c0,1.5,1.22,2.72,2.72,2.72
		c1.5,0,2.72-1.22,2.72-2.72V115.8c0-1.5-1.22-2.72-2.72-2.72H43.83c-1.5,0-2.72-1.22-2.72-2.72v-13.6c0-1.03-0.58-1.97-1.5-2.43
		l-10.81-5.4c-1.46-0.73-1.96-2.57-1.05-3.94l12.9-19.35c0.3-0.45,0.46-0.97,0.46-1.51V53.24c0-22.5,18.3-40.8,40.8-40.8
		c22.5,0,40.8,18.3,40.8,40.8v87.04C122.71,141.78,123.92,143,125.43,143z"/>
	<linearGradient id="SVGID_2_" gradientUnits="userSpaceOnUse" x1="87.3481" y1="87.24" x2="109.1081" y2="87.24">
		<stop  offset="0" style="stop-color:#C800FF"/>
		<stop  offset="1" style="stop-color:#6400FF"/>
	</linearGradient>
	<path class="st1" d="M98.23,31.48c-6,0-10.88,4.88-10.88,10.88c0,5.05,3.48,9.28,8.16,10.49v87.43c0,1.5,1.22,2.72,2.72,2.72
		c1.5,0,2.72-1.22,2.72-2.72V52.85c4.68-1.22,8.16-5.44,8.16-10.49C109.11,36.36,104.23,31.48,98.23,31.48z M98.23,47.8
		c-3,0-5.44-2.44-5.44-5.44s2.44-5.44,5.44-5.44c3,0,5.44,2.44,5.44,5.44S101.23,47.8,98.23,47.8z"/>
	<linearGradient id="SVGID_3_" gradientUnits="userSpaceOnUse" x1="54.7082" y1="87.24" x2="84.6281" y2="87.24">
		<stop  offset="0" style="stop-color:#C800FF"/>
		<stop  offset="1" style="stop-color:#6400FF"/>
	</linearGradient>
	<path class="st2" d="M81.91,143c1.5,0,2.72-1.22,2.72-2.72v-81.6c0-0.72-0.29-1.41-0.8-1.92l-8.91-8.91
		c0.96-1.62,1.54-3.48,1.54-5.49c0-6-4.88-10.88-10.88-10.88c-6,0-10.88,4.88-10.88,10.88s4.88,10.88,10.88,10.88
		c2.01,0,3.87-0.59,5.49-1.54l8.11,8.11v80.47C79.19,141.78,80.41,143,81.91,143z M60.15,42.36c0-3,2.44-5.44,5.44-5.44
		c3,0,5.44,2.44,5.44,5.44s-2.44,5.44-5.44,5.44C62.59,47.8,60.15,45.36,60.15,42.36z"/>
</g>
</svg>
