<?xml version="1.0" encoding="utf-8"?>
<!-- Generator: Adobe Illustrator 25.0.0, SVG Export Plug-In . SVG Version: 6.00 Build 0)  -->
<svg version="1.1" id="Capa_1" xmlns="http://www.w3.org/2000/svg" xmlns:xlink="http://www.w3.org/1999/xlink" x="0px" y="0px"
	 viewBox="0 0 150 150" style="enable-background:new 0 0 150 150;" xml:space="preserve">
<style type="text/css">
	.st0{fill:url(#SVGID_1_);}
</style>
<linearGradient id="SVGID_1_" gradientUnits="userSpaceOnUse" x1="4.501" y1="75" x2="145.499" y2="75">
	<stop  offset="0" style="stop-color:#C800FF"/>
	<stop  offset="1" style="stop-color:#6400FF"/>
</linearGradient>
<path class="st0" d="M19.83,19.83C30.04,9.61,43.44,4.5,56.83,4.5c13.39,0,26.78,5.11,37,15.33c10.22,10.22,15.33,23.61,15.33,37
	c0,10.99-3.45,21.98-10.33,31.22l7.46,7.46c0.58-0.16,1.19-0.24,1.79-0.24c1.72,0,3.44,0.65,4.75,1.96l30.71,30.71
	c1.31,1.31,1.96,3.03,1.96,4.75c0,1.72-0.65,3.44-1.96,4.75c-2.16,2.01-4.18,4.26-6.32,6.3c-1.28,1.17-2.9,1.76-4.52,1.76
	c-1.72,0-3.44-0.65-4.75-1.96l-30.71-30.71c-1.31-1.31-1.97-3.03-1.97-4.75c0-0.6,0.08-1.2,0.24-1.79l-7.46-7.46
	c-9.24,6.88-20.23,10.33-31.22,10.33c-13.39,0-26.78-5.11-37-15.33C9.61,83.61,4.5,70.21,4.5,56.83
	C4.5,43.44,9.61,30.04,19.83,19.83L19.83,19.83z M101.24,99.33l-6.47-6.47c-0.31,0.33-0.63,0.65-0.95,0.97
	c-0.32,0.32-0.65,0.64-0.97,0.95l6.47,6.47L101.24,99.33L101.24,99.33z M101.62,107.78c-0.06,0.08-0.09,0.18-0.09,0.29
	c0,0.12,0.04,0.24,0.13,0.32l30.71,30.71c0.09,0.09,0.2,0.13,0.32,0.13c0.1,0,0.2-0.03,0.28-0.08c2.01-2.01,4.21-4.07,6.14-6.14
	c0.08-0.08,0.13-0.2,0.13-0.32c0-0.12-0.04-0.24-0.13-0.32l-30.71-30.71c-0.09-0.09-0.2-0.13-0.32-0.13c-0.1,0-0.2,0.03-0.28,0.08
	L101.62,107.78z M33.33,33.33l-0.15,0.14c-6.39,6.47-9.58,14.91-9.58,23.35c0,8.51,3.24,17.01,9.72,23.49
	c6.49,6.48,15,9.73,23.5,9.73c8.5,0,17-3.24,23.49-9.73c6.49-6.49,9.73-14.99,9.73-23.49c0-8.51-3.24-17.01-9.72-23.49
	c-6.49-6.48-15-9.73-23.5-9.73C48.32,23.61,39.82,26.85,33.33,33.33L33.33,33.33z M28.9,28.91c7.73-7.71,17.83-11.57,27.92-11.57
	c10.1,0,20.21,3.86,27.92,11.57c7.71,7.73,11.57,17.83,11.57,27.92c0,10.1-3.86,20.21-11.57,27.92
	c-7.71,7.71-17.82,11.57-27.92,11.57c-10.1,0-20.21-3.86-27.92-11.57c-7.71-7.73-11.57-17.83-11.57-27.92
	c0-10.02,3.8-20.05,11.4-27.74L28.9,28.91L28.9,28.91z M56.83,10.77c-11.79,0-23.58,4.5-32.57,13.49
	c-8.99,8.99-13.49,20.78-13.49,32.57c0,11.79,4.5,23.58,13.49,32.57c8.99,8.99,20.78,13.49,32.57,13.49
	c11.79,0,23.58-4.5,32.57-13.49c8.99-8.99,13.49-20.78,13.49-32.57c0-11.79-4.5-23.58-13.49-32.57
	C80.4,15.27,68.61,10.77,56.83,10.77L56.83,10.77z"/>
</svg>
