<?xml version="1.0" encoding="utf-8"?>
<!-- Generator: Adobe Illustrator 25.0.0, SVG Export Plug-In . SVG Version: 6.00 Build 0)  -->
<svg version="1.1" id="Capa_1" xmlns="http://www.w3.org/2000/svg" xmlns:xlink="http://www.w3.org/1999/xlink" x="0px" y="0px"
	 viewBox="0 0 150 150" style="enable-background:new 0 0 150 150;" xml:space="preserve">
<style type="text/css">
	.st0{fill:url(#SVGID_1_);}
	.st1{fill:url(#SVGID_2_);}
	.st2{fill:url(#SVGID_3_);}
	.st3{fill:url(#SVGID_4_);}
	.st4{fill:url(#SVGID_5_);}
	.st5{fill:url(#SVGID_6_);}
</style>
<g>
	<linearGradient id="SVGID_1_" gradientUnits="userSpaceOnUse" x1="21.7111" y1="75" x2="128.2889" y2="75">
		<stop  offset="0" style="stop-color:#C800FF"/>
		<stop  offset="1" style="stop-color:#6400FF"/>
	</linearGradient>
	<path class="st0" d="M119.87,145.12c4.64,0,8.41-3.77,8.41-8.41V41.34c0-0.74-0.3-1.46-0.82-1.98L93.81,5.71
		c-0.52-0.52-1.24-0.82-1.98-0.82h-61.7c-4.64,0-8.41,3.77-8.41,8.41V136.7c0,4.64,3.77,8.41,8.41,8.41H119.87z M94.63,14.46
		l24.08,24.08H97.44c-1.55,0-2.8-1.26-2.8-2.8V14.46z M27.32,136.7V13.3c0-1.55,1.26-2.8,2.8-2.8h58.9v25.24
		c0,4.64,3.77,8.41,8.41,8.41h25.24v92.55c0,1.55-1.26,2.8-2.8,2.8H30.13C28.58,139.51,27.32,138.25,27.32,136.7z"/>
	<linearGradient id="SVGID_2_" gradientUnits="userSpaceOnUse" x1="38.5392" y1="24.5157" x2="77.8047" y2="24.5157">
		<stop  offset="0" style="stop-color:#C800FF"/>
		<stop  offset="1" style="stop-color:#6400FF"/>
	</linearGradient>
	<path class="st1" d="M41.34,27.32H75c1.55,0,2.8-1.26,2.8-2.8c0-1.55-1.26-2.8-2.8-2.8H41.34c-1.55,0-2.8,1.26-2.8,2.8
		C38.54,26.06,39.8,27.32,41.34,27.32z"/>
	<linearGradient id="SVGID_3_" gradientUnits="userSpaceOnUse" x1="38.5392" y1="41.3438" x2="69.3906" y2="41.3438">
		<stop  offset="0" style="stop-color:#C800FF"/>
		<stop  offset="1" style="stop-color:#6400FF"/>
	</linearGradient>
	<path class="st2" d="M41.34,44.15h25.24c1.55,0,2.8-1.26,2.8-2.8s-1.26-2.8-2.8-2.8H41.34c-1.55,0-2.8,1.26-2.8,2.8
		S39.8,44.15,41.34,44.15z"/>
	<linearGradient id="SVGID_4_" gradientUnits="userSpaceOnUse" x1="38.5392" y1="108.6562" x2="111.4609" y2="108.6562">
		<stop  offset="0" style="stop-color:#C800FF"/>
		<stop  offset="1" style="stop-color:#6400FF"/>
	</linearGradient>
	<path class="st3" d="M41.34,111.46h67.31c1.55,0,2.8-1.26,2.8-2.8c0-1.55-1.26-2.8-2.8-2.8H41.34c-1.55,0-2.8,1.26-2.8,2.8
		C38.54,110.2,39.8,111.46,41.34,111.46z"/>
	<linearGradient id="SVGID_5_" gradientUnits="userSpaceOnUse" x1="38.5392" y1="125.4843" x2="111.4609" y2="125.4843">
		<stop  offset="0" style="stop-color:#C800FF"/>
		<stop  offset="1" style="stop-color:#6400FF"/>
	</linearGradient>
	<path class="st4" d="M41.34,128.29h67.31c1.55,0,2.8-1.26,2.8-2.8s-1.26-2.8-2.8-2.8H41.34c-1.55,0-2.8,1.26-2.8,2.8
		S39.8,128.29,41.34,128.29z"/>
	<linearGradient id="SVGID_6_" gradientUnits="userSpaceOnUse" x1="38.5392" y1="75" x2="111.4609" y2="75">
		<stop  offset="0" style="stop-color:#C800FF"/>
		<stop  offset="1" style="stop-color:#6400FF"/>
	</linearGradient>
	<path class="st5" d="M55.84,65.03L39.01,90.27c-0.86,1.29-0.51,3.03,0.78,3.89c1.29,0.86,3.03,0.51,3.89-0.78l15.27-22.91
		l22.91,15.27c1.12,0.74,2.59,0.6,3.54-0.35l25.24-25.24c1.1-1.1,1.1-2.87,0-3.97c-1.1-1.1-2.87-1.1-3.97,0L83.06,79.81L59.73,64.25
		C58.44,63.39,56.7,63.74,55.84,65.03z"/>
</g>
</svg>
