<?xml version="1.0" encoding="utf-8"?>
<!-- Generator: Adobe Illustrator 25.0.0, SVG Export Plug-In . SVG Version: 6.00 Build 0)  -->
<svg version="1.1" id="Capa_1" xmlns="http://www.w3.org/2000/svg" xmlns:xlink="http://www.w3.org/1999/xlink" x="0px" y="0px"
	 viewBox="0 0 150 150" style="enable-background:new 0 0 150 150;" xml:space="preserve">
<style type="text/css">
	.st0{fill:url(#SVGID_1_);}
	.st1{fill:url(#SVGID_2_);}
	.st2{fill:url(#SVGID_3_);}
	.st3{fill:url(#SVGID_4_);}
	.st4{fill:url(#SVGID_5_);}
	.st5{fill:url(#SVGID_6_);}
	.st6{fill:url(#SVGID_7_);}
	.st7{fill:url(#SVGID_8_);}
	.st8{fill:url(#SVGID_9_);}
	.st9{fill:url(#SVGID_10_);}
	.st10{fill:url(#SVGID_11_);}
</style>
<g>
	<linearGradient id="SVGID_1_" gradientUnits="userSpaceOnUse" x1="21.583" y1="75" x2="128.417" y2="75">
		<stop  offset="0" style="stop-color:#C800FF"/>
		<stop  offset="1" style="stop-color:#6400FF"/>
	</linearGradient>
	<path class="st0" d="M114.11,15.48h-17.2V7c0-1.31-1.06-2.37-2.37-2.37S92.16,5.69,92.16,7v8.48H57.83V7
		c0-1.31-1.06-2.37-2.37-2.37c-1.31,0-2.37,1.06-2.37,2.37v8.48h-17.2c-7.89,0-14.31,6.42-14.31,14.31v101.27
		c0,7.89,6.42,14.31,14.31,14.31h78.22c7.89,0,14.31-6.42,14.31-14.31V29.79C128.42,21.9,122,15.48,114.11,15.48L114.11,15.48z
		 M123.67,131.07c0,5.27-4.29,9.56-9.56,9.56H35.89c-5.28,0-9.56-4.29-9.56-9.56V29.79c0-5.28,4.29-9.57,9.56-9.57h17.2v3.6
		c-1.87,0.89-3.17,2.78-3.17,4.99c0,3.06,2.49,5.54,5.54,5.54c3.06,0,5.54-2.49,5.54-5.54c0-2.2-1.3-4.1-3.17-4.99v-3.6h34.33v3.6
		C90.3,24.72,89,26.61,89,28.82c0,3.06,2.49,5.54,5.54,5.54c3.06,0,5.54-2.49,5.54-5.54c0-2.2-1.3-4.1-3.17-4.99l0-3.6h17.2
		c5.28,0,9.56,4.29,9.56,9.57L123.67,131.07z M56.26,28.82c0,0.88-1.6,0.88-1.6,0c0-0.44,0.35-0.8,0.8-0.8
		C55.9,28.02,56.26,28.38,56.26,28.82z M95.33,28.82c0,0.88-1.6,0.88-1.6,0c0-0.44,0.36-0.8,0.8-0.8
		C94.97,28.02,95.33,28.38,95.33,28.82z"/>
	<linearGradient id="SVGID_2_" gradientUnits="userSpaceOnUse" x1="45.2342" y1="91.0776" x2="87.5713" y2="91.0776">
		<stop  offset="0" style="stop-color:#C800FF"/>
		<stop  offset="1" style="stop-color:#6400FF"/>
	</linearGradient>
	<path class="st1" d="M85.2,88.71H47.61c-1.31,0-2.37,1.06-2.37,2.37s1.06,2.37,2.37,2.37H85.2c1.31,0,2.37-1.06,2.37-2.37
		S86.5,88.71,85.2,88.71L85.2,88.71z"/>
	<linearGradient id="SVGID_3_" gradientUnits="userSpaceOnUse" x1="45.2342" y1="108.2244" x2="87.5713" y2="108.2244">
		<stop  offset="0" style="stop-color:#C800FF"/>
		<stop  offset="1" style="stop-color:#6400FF"/>
	</linearGradient>
	<path class="st2" d="M85.2,105.85H47.61c-1.31,0-2.37,1.06-2.37,2.37c0,1.31,1.06,2.37,2.37,2.37H85.2c1.31,0,2.37-1.06,2.37-2.37
		C87.57,106.91,86.5,105.85,85.2,105.85L85.2,105.85z"/>
	<linearGradient id="SVGID_4_" gradientUnits="userSpaceOnUse" x1="45.2342" y1="73.9308" x2="87.5713" y2="73.9308">
		<stop  offset="0" style="stop-color:#C800FF"/>
		<stop  offset="1" style="stop-color:#6400FF"/>
	</linearGradient>
	<path class="st3" d="M85.2,71.56H47.61c-1.31,0-2.37,1.06-2.37,2.37s1.06,2.37,2.37,2.37H85.2c1.31,0,2.37-1.06,2.37-2.37
		C87.57,72.62,86.5,71.56,85.2,71.56L85.2,71.56z"/>
	<linearGradient id="SVGID_5_" gradientUnits="userSpaceOnUse" x1="45.2342" y1="125.3686" x2="87.5713" y2="125.3686">
		<stop  offset="0" style="stop-color:#C800FF"/>
		<stop  offset="1" style="stop-color:#6400FF"/>
	</linearGradient>
	<path class="st4" d="M85.2,123H47.61c-1.31,0-2.37,1.06-2.37,2.37s1.06,2.37,2.37,2.37H85.2c1.31,0,2.37-1.06,2.37-2.37
		C87.57,124.06,86.5,123,85.2,123L85.2,123z"/>
	<linearGradient id="SVGID_6_" gradientUnits="userSpaceOnUse" x1="45.2342" y1="56.784" x2="87.5713" y2="56.784">
		<stop  offset="0" style="stop-color:#C800FF"/>
		<stop  offset="1" style="stop-color:#6400FF"/>
	</linearGradient>
	<path class="st5" d="M85.2,54.41H47.61c-1.31,0-2.37,1.06-2.37,2.37c0,1.31,1.06,2.37,2.37,2.37H85.2c1.31,0,2.37-1.06,2.37-2.37
		C87.57,55.47,86.5,54.41,85.2,54.41L85.2,54.41z"/>
	<linearGradient id="SVGID_7_" gradientUnits="userSpaceOnUse" x1="96.7579" y1="56.7848" x2="108.5706" y2="56.7848">
		<stop  offset="0" style="stop-color:#C800FF"/>
		<stop  offset="1" style="stop-color:#6400FF"/>
	</linearGradient>
	<path class="st6" d="M102.67,50.88c-3.26,0-5.91,2.65-5.91,5.91c0,3.26,2.65,5.91,5.91,5.91c3.25,0,5.9-2.65,5.9-5.91
		C108.57,53.53,105.92,50.88,102.67,50.88z M102.67,57.95c-0.64,0-1.16-0.52-1.16-1.16c0-0.64,0.52-1.16,1.16-1.16
		c0.64,0,1.16,0.52,1.16,1.16C103.83,57.43,103.31,57.95,102.67,57.95z"/>
	<linearGradient id="SVGID_8_" gradientUnits="userSpaceOnUse" x1="96.7579" y1="73.9316" x2="108.5706" y2="73.9316">
		<stop  offset="0" style="stop-color:#C800FF"/>
		<stop  offset="1" style="stop-color:#6400FF"/>
	</linearGradient>
	<path class="st7" d="M102.67,68.02c-3.26,0-5.91,2.65-5.91,5.91s2.65,5.91,5.91,5.91c3.25,0,5.9-2.65,5.9-5.91
		S105.92,68.02,102.67,68.02L102.67,68.02z M102.67,75.09c-0.64,0-1.16-0.52-1.16-1.16s0.52-1.16,1.16-1.16
		c0.64,0,1.16,0.52,1.16,1.16S103.31,75.09,102.67,75.09z"/>
	<linearGradient id="SVGID_9_" gradientUnits="userSpaceOnUse" x1="96.7579" y1="91.0768" x2="108.5706" y2="91.0768">
		<stop  offset="0" style="stop-color:#C800FF"/>
		<stop  offset="1" style="stop-color:#6400FF"/>
	</linearGradient>
	<path class="st8" d="M102.67,85.17c-3.26,0-5.91,2.65-5.91,5.91c0,3.25,2.65,5.9,5.91,5.9c3.25,0,5.9-2.65,5.9-5.9
		C108.57,87.82,105.92,85.17,102.67,85.17z M102.67,92.24c-0.64,0-1.16-0.52-1.16-1.16c0-0.64,0.52-1.16,1.16-1.16
		c0.64,0,1.16,0.52,1.16,1.16C103.83,91.72,103.31,92.24,102.67,92.24z"/>
	<linearGradient id="SVGID_10_" gradientUnits="userSpaceOnUse" x1="96.7579" y1="108.2236" x2="108.5706" y2="108.2236">
		<stop  offset="0" style="stop-color:#C800FF"/>
		<stop  offset="1" style="stop-color:#6400FF"/>
	</linearGradient>
	<path class="st9" d="M102.67,102.32c-3.26,0-5.91,2.65-5.91,5.91s2.65,5.9,5.91,5.9c3.25,0,5.9-2.65,5.9-5.9
		S105.92,102.32,102.67,102.32z M102.67,109.39c-0.64,0-1.16-0.52-1.16-1.16c0-0.64,0.52-1.16,1.16-1.16c0.64,0,1.16,0.52,1.16,1.16
		C103.83,108.87,103.31,109.39,102.67,109.39z"/>
	<linearGradient id="SVGID_11_" gradientUnits="userSpaceOnUse" x1="96.7579" y1="125.3705" x2="108.5706" y2="125.3705">
		<stop  offset="0" style="stop-color:#C800FF"/>
		<stop  offset="1" style="stop-color:#6400FF"/>
	</linearGradient>
	<path class="st10" d="M102.67,119.46c-3.26,0-5.91,2.65-5.91,5.9c0,3.26,2.65,5.91,5.91,5.91c3.25,0,5.9-2.65,5.9-5.91
		C108.57,122.11,105.92,119.46,102.67,119.46z M102.67,126.53c-0.64,0-1.16-0.52-1.16-1.16c0-0.64,0.52-1.16,1.16-1.16
		c0.64,0,1.16,0.52,1.16,1.16C103.83,126.01,103.31,126.53,102.67,126.53z"/>
</g>
</svg>
