<?xml version="1.0" encoding="utf-8"?>
<!-- Generator: Adobe Illustrator 25.0.0, SVG Export Plug-In . SVG Version: 6.00 Build 0)  -->
<svg version="1.1" id="Capa_1" xmlns="http://www.w3.org/2000/svg" xmlns:xlink="http://www.w3.org/1999/xlink" x="0px" y="0px"
	 viewBox="0 0 150 150" style="enable-background:new 0 0 150 150;" xml:space="preserve">
<style type="text/css">
	.st0{fill:url(#SVGID_1_);}
</style>
<linearGradient id="SVGID_1_" gradientUnits="userSpaceOnUse" x1="27.6023" y1="75" x2="122.3977" y2="75">
	<stop  offset="0" style="stop-color:#C800FF"/>
	<stop  offset="1" style="stop-color:#6400FF"/>
</linearGradient>
<path class="st0" d="M101.26,90.77c13.23-8.83,21.13-23.59,21.13-39.47c0-13.46-5.75-26.33-15.79-35.31
	C96.44,6.88,83.3,2.7,69.6,4.21C48.14,6.58,30.65,23.84,27.97,45.23c-2.22,17.9,5.6,35.27,20.44,45.33
	c6.96,4.72,11.12,12.3,11.12,20.25l0,2.97h-1.77c-1.19,0-2.15,0.97-2.15,2.15v17.23c0,1.19,0.97,2.15,2.15,2.15h2.35
	c1.03,6.1,6.33,10.77,12.73,10.77h4.31c6.4,0,11.7-4.68,12.73-10.77h2.35c1.19,0,2.15-0.97,2.15-2.15v-17.23
	c0-1.19-0.97-2.15-2.15-2.15h-1.77v-2.99C90.47,102.75,94.5,95.27,101.26,90.77L101.26,90.77z M50.85,86.98
	c-13.49-9.16-20.62-24.95-18.59-41.21C34.67,26.34,50.59,10.65,70.09,8.5c12.45-1.38,24.41,2.43,33.65,10.71
	c9.11,8.17,14.35,19.86,14.35,32.1c0,14.43-7.17,27.86-19.22,35.87c-7.97,5.3-12.71,14.13-12.71,23.61V113h-9V66.08
	c3.71-0.97,6.46-4.31,6.46-8.32c0-4.76-3.86-8.62-8.62-8.62c-4.76,0-8.62,3.86-8.62,8.62c0,4.01,2.76,7.35,6.46,8.32v46.94h-9.01
	v-2.22C63.84,101.41,58.99,92.49,50.85,86.98L50.85,86.98z M75,62.07c-2.37,0-4.31-1.94-4.31-4.31s1.94-4.31,4.31-4.31
	c2.37,0,4.31,1.94,4.31,4.31S77.37,62.07,75,62.07z M90.08,122.4H59.92v-4.31h30.16V122.4z M77.16,141.78h-4.31
	c-4.01,0-7.39-2.76-8.34-6.46h21C84.55,139.03,81.16,141.78,77.16,141.78z M90.08,131.01H59.92v-4.31h30.16V131.01z"/>
</svg>
